<?xml version="1.0" encoding="UTF-8" standalone="no" ?>
<!DOCTYPE svg PUBLIC "-//W3C//DTD SVG 1.1//EN" "http://www.w3.org/Graphics/SVG/1.1/DTD/svg11.dtd">
<svg xmlns="http://www.w3.org/2000/svg" xmlns:xlink="http://www.w3.org/1999/xlink" version="1.1" width="1280" height="124" viewBox="0 0 1280 124" xml:space="preserve">
<desc>Created with Fabric.js 3.6.3</desc>
<defs>
</defs>
<g transform="matrix(1 0 0 1 639.93 61.57)"  >
<g style=""   >
		<g transform="matrix(1 0 0 1 95.54 38.28)" id="Rentalika_home_xA0_Imagen_00000141417532500584156720000013882359583392318628_"  >
<path style="stroke: none; stroke-width: 1; stroke-dasharray: none; stroke-linecap: butt; stroke-dashoffset: 0; stroke-linejoin: miter; stroke-miterlimit: 4; fill: rgb(208,188,233); fill-rule: nonzero; opacity: 1;"  transform=" translate(-735.48, -99.85)" d="M 699.74 78.16 c 28.88 -2.75 57.65 -1.81 85.78 5.32 c 6.61 1.68 13.79 3.17 20.13 7.59 c 3.86 2.69 9.51 3.97 13.97 6.74 c 1.93 1.2 4.62 1.91 2.55 5.32 c -0.73 1.19 1.09 3.24 2.01 2.4 c 5.19 -4.74 6.7 1.58 9.8 2.97 c 0.41 0.19 0.67 0.72 1 1.09 c -0.56 1.91 -2.28 2.22 -3.81 2.79 c -1.92 -0.17 -3.93 -0.52 -4.57 2.11 c -1.32 1.84 -3.1 2.79 -5.35 2.87 c -1.74 -0.8 -2.76 -0.46 -2.63 1.69 c -0.28 2.19 -2.13 2.9 -3.66 3.91 c -1 0 -2 0 -3 0 c -1.33 -2.17 -2.67 -1.94 -4 0 c -6.33 0 -12.66 0 -19 0 c -0.6 -0.71 -0.21 -2.24 -1.18 -2.33 c -1.34 -0.13 -0.89 1.76 -1.82 2.33 c -16.66 0 -33.33 0 -49.99 0 c -1.33 -1.13 -2.67 -1.13 -4 0 c -6 0 -12 0 -18 0 c -1.67 -1.27 -3.33 -1.27 -5 0 c -24.33 0 -48.66 0 -72.99 0 c 0.1 -2.83 2.59 -3.22 4.4 -4.03 c 17.02 -7.61 33.76 -15.83 50.71 -23.61 c 4.78 -2.19 7.35 -6.06 7.59 -11.4 C 698.79 81.96 698.33 79.88 699.74 78.16 z" stroke-linecap="round" />
</g>
		<g transform="matrix(1 0 0 1 467.97 48.57)" id="Rentalika_home_xA0_Imagen_00000141417532500584156720000013882359583392318628_"  >
<path style="stroke: none; stroke-width: 1; stroke-dasharray: none; stroke-linecap: butt; stroke-dashoffset: 0; stroke-linejoin: miter; stroke-miterlimit: 4; fill: rgb(208,188,233); fill-rule: nonzero; opacity: 1;"  transform=" translate(-1107.9, -110.14)" d="M 1116.12 114.86 c 20.36 -0.86 40.6 -2.78 60.68 -6.34 c 17.09 -3.03 33.98 -7.58 51.62 -6.64 c 6.49 0.35 12.84 1.31 19.17 2.55 c 1.35 0.26 2.57 0.79 3.61 -0.53 c 1.47 -0.35 2.75 -0.13 3.63 1.24 c -1.04 2.32 1.16 1.91 2.08 2.27 c 4.96 1.91 9.75 4.11 13.96 7.42 c -0.24 2.14 0.64 2.22 2.15 1.17 c 2.28 1.99 4.57 3.98 6.85 5.97 c -2.62 2.14 -5.67 0.66 -8.5 0.95 c -2.47 0.25 -4.99 0.05 -7.49 0.05 c -1.33 -1.92 -2.67 -1.92 -4 0 c -6.33 0 -12.66 0 -19 0 c -1 -3.27 -2 -1.53 -3 0 c -100.65 0 -201.29 0 -301.94 0 c 1.74 -4.26 5.73 -4.74 9.47 -5.64 c 1.11 -0.07 1.79 1.6 2.98 0.82 c 0.22 -0.15 -0.66 -1 -0.68 -1.68 c 5.72 -4.07 11.78 -7.4 18.71 -8.92 c 1.64 0.91 3.21 1.66 3.25 -1.34 c 6.07 -4.5 12.67 -7.83 20.21 -9.08 c 4.72 3 10.27 3.17 15.47 4.44 c 7.17 1.76 14.45 3.09 21.68 4.61 c 0.79 2.34 2.01 2.88 3.84 0.93 c 1.7 0.3 3.4 0.61 5.11 0.91 c 1.65 0.44 3.27 1.07 5.03 0.94 c 1.92 0.32 3.84 0.64 5.75 0.97 c 1.1 -0.48 2.16 -0.44 3.16 0.28 c 9.18 2.22 18.61 2.86 27.95 3.54 c 8.57 0.63 17.18 1.86 25.84 1.15 C 1107.84 116.89 1111.98 116.89 1116.12 114.86 z" stroke-linecap="round" />
</g>
		<g transform="matrix(1 0 0 1 -612.25 9.95)" id="Rentalika_home_xA0_Imagen_00000141417532500584156720000013882359583392318628_"  >
<path style="stroke: none; stroke-width: 1; stroke-dasharray: none; stroke-linecap: butt; stroke-dashoffset: 0; stroke-linejoin: miter; stroke-miterlimit: 4; fill: rgb(168,249,90); fill-rule: nonzero; opacity: 1;"  transform=" translate(-27.68, -71.52)" d="M 0.11 19.99 c 19.21 5.88 34.49 16.91 44.88 34.3 c 6.19 10.38 8.93 21.74 9.27 33.74 c 2.48 6.19 0.27 11.93 -1.68 17.7 c -0.9 1.33 -4.43 1.42 -2.02 4.32 c 0.64 2.23 -0.84 3.97 -1.36 5.94 c -0.4 1.07 -0.86 2.11 -1.44 3.1 c -0.95 1.54 -2.08 2.91 -3.65 3.88 c -13.69 0 -27.37 -0.08 -41.05 0.07 c -2.56 0.03 -3.38 -0.68 -2.94 -3.07 c 1.13 -1.33 1.13 -2.67 0 -4 c 0 -2 0 -4 0 -6 c 1.13 -1.33 1.13 -2.67 0 -4 c 0 -2 0 -4 0 -6 c 1.13 -1.33 1.13 -2.67 0 -4 C 0.11 70.64 0.11 45.32 0.11 19.99 z" stroke-linecap="round" />
</g>
		<g transform="matrix(1 0 0 1 -221.42 47.32)" id="Rentalika_home_xA0_Imagen_00000141417532500584156720000013882359583392318628_"  >
<path style="stroke: none; stroke-width: 1; stroke-dasharray: none; stroke-linecap: butt; stroke-dashoffset: 0; stroke-linejoin: miter; stroke-miterlimit: 4; fill: rgb(208,188,233); fill-rule: nonzero; opacity: 1;"  transform=" translate(-418.52, -108.89)" d="M 310.04 114.97 c 5.9 -2.06 12.04 -3.06 18.17 -4.1 c 1.12 -0.16 1.78 0.69 2.6 1.19 c 4.41 2.68 7.1 2.06 9.86 -2.29 c 0.44 -0.69 0.75 -1.47 1.54 -1.85 c 21.47 -3.9 42.78 -8.65 64.51 -11.12 c 16.73 -1.9 33.48 -2.48 50.21 -1.58 c 20.19 1.08 40.2 3.92 59.13 11.71 l -0.04 -0.04 c 1.66 1.33 3.32 2.66 4.97 4 c -0.62 2.72 0.27 3.85 3.1 2.96 c 0.97 0.44 1.94 0.88 2.92 1.31 c -2.72 4.37 -7.88 4.5 -11.82 6.75 c -0.96 0.54 -2.24 0.33 -3.18 1.07 c -2 0 -4 0 -6 0 c -1.67 -1.86 -3.33 -1.86 -5 0 c -6 0 -12 0 -18 0 c -1.33 -1.92 -2.67 -1.92 -4 0 c -33.66 0 -67.32 0 -100.98 0 c -2.46 -2.11 -2.87 -5.49 -5.08 -7.86 c -8.11 -8.7 -20.47 -7.25 -26.1 3.25 c -0.85 1.6 -1.33 3.41 -2.82 4.6 c -6 0 -12 0 -18 0 c -4.51 -1.43 -8.97 -3 -13.18 -5.19 C 311.69 117.16 309.84 117.05 310.04 114.97 z" stroke-linecap="round" />
</g>
		<g transform="matrix(1 0 0 1 -521.33 43.92)" id="Rentalika_home_xA0_Imagen_00000141417532500584156720000013882359583392318628_"  >
<path style="stroke: none; stroke-width: 1; stroke-dasharray: none; stroke-linecap: butt; stroke-dashoffset: 0; stroke-linejoin: miter; stroke-miterlimit: 4; fill: rgb(208,188,233); fill-rule: nonzero; opacity: 1;"  transform=" translate(-118.6, -105.49)" d="M 48.17 115.98 c 0.6 -1.93 1.21 -3.86 1.81 -5.79 c 0.2 -1.43 0.47 -2.85 1.24 -4.11 c 2.45 -5.78 2.65 -11.93 3.04 -18.05 c 3.27 1.64 6.6 3.17 9.79 4.95 c 1.9 1.06 5.13 0.89 3.68 5.17 c -0.63 1.86 2.46 2.46 3.81 0.58 c 1.21 -1.68 2.26 -1.46 3.75 -0.86 c 19.76 7.84 38.95 5.37 58.4 -1.99 c 20 -7.57 40 -5.12 59.41 3.21 c -0.52 2.58 -2.75 1.98 -4.38 2.23 c -9.87 1.53 -19.5 3.94 -28.91 7.31 c -7.13 2.55 -13.5 6.35 -19.21 11.26 c -1.41 1.21 -2.99 2.07 -4.52 3.05 c -30.66 0 -61.32 0 -91.98 0 c 0.95 -1.41 1.9 -2.81 2.85 -4.22 C 48.5 118.32 50.83 118.25 48.17 115.98 z" stroke-linecap="round" />
</g>
		<g transform="matrix(1 0 0 1 -369.46 36.61)" id="Rentalika_home_xA0_Imagen_00000141417532500584156720000013882359583392318628_"  >
<path style="stroke: none; stroke-width: 1; stroke-dasharray: none; stroke-linecap: butt; stroke-dashoffset: 0; stroke-linejoin: miter; stroke-miterlimit: 4; fill: rgb(100,36,183); fill-rule: nonzero; opacity: 1;"  transform=" translate(-270.47, -98.18)" d="M 291.44 84.55 c 6.9 -3.22 13.78 -6.5 20.71 -9.63 c 7.27 -3.28 14.27 -1.08 17.38 5.31 c 3.24 6.67 0.49 13.62 -6.91 17.2 c -8.78 4.25 -17.6 8.43 -26.4 12.64 c -1.92 3.18 -5.63 3.29 -8.48 4.86 c -5.95 3.29 -12.12 6.13 -18.68 8.02 c -19.66 0 -39.33 0 -58.99 0 c 0 -2.53 2.32 -2.5 3.78 -3.25 c 13.42 -6.95 27.41 -12.71 40.89 -19.52 c 11.4 -4.78 22.37 -10.48 33.59 -15.64 C 289.37 83.99 290.4 84.71 291.44 84.55 z" stroke-linecap="round" />
</g>
		<g transform="matrix(1 0 0 1 315.85 34.95)" id="Rentalika_home_xA0_Imagen_00000141417532500584156720000013882359583392318628_"  >
<path style="stroke: none; stroke-width: 1; stroke-dasharray: none; stroke-linecap: butt; stroke-dashoffset: 0; stroke-linejoin: miter; stroke-miterlimit: 4; fill: rgb(254,56,188); fill-rule: nonzero; opacity: 1;"  transform=" translate(-955.79, -96.52)" d="M 989.87 97.13 c -6.68 3.22 -13.37 6.45 -20.05 9.67 c -0.45 1.55 -1.36 2.07 -2.85 1.26 c -6.57 2.5 -12.86 5.61 -19.03 8.97 c 0.02 1.38 -0.58 1.63 -1.7 0.92 c -3.76 0.99 -7.27 2.51 -10.3 5 c -5.33 0 -10.66 0 -16 0 c -2.58 -6.01 -6.25 -11.3 -10.53 -16.21 c 0.15 -3.74 3.48 -4.12 5.86 -5.19 c 8.15 -3.68 16.17 -7.62 24.29 -11.34 c 9.95 -4.48 19.81 -9.16 29.68 -13.83 c 0.69 -0.33 1.41 -0.41 2.15 -0.3 c 4.04 -0.5 7.32 -2.91 10.94 -4.45 c 7.87 -3.35 15.25 -1.15 18.52 5.8 c 3.27 6.94 0.31 14.1 -7.42 17.94 C 992.24 95.96 991.05 96.54 989.87 97.13 z" stroke-linecap="round" />
</g>
		<g transform="matrix(1 0 0 1 -38.14 38.49)" id="Rentalika_home_xA0_Imagen_00000141417532500584156720000013882359583392318628_"  >
<path style="stroke: none; stroke-width: 1; stroke-dasharray: none; stroke-linecap: butt; stroke-dashoffset: 0; stroke-linejoin: miter; stroke-miterlimit: 4; fill: rgb(168,249,90); fill-rule: nonzero; opacity: 1;"  transform=" translate(-601.8, -100.06)" d="M 620.16 87.67 c 5.5 -2.64 11 -5.27 16.49 -7.93 c 8.19 -3.97 11.46 -3.53 18.31 2.51 c 0.81 0.59 1.61 1.2 2.06 2.14 c 2.68 8.06 0.12 14.05 -7.96 18.43 c -10.19 5.53 -20.94 9.9 -31.25 15.17 c -3.82 1.95 -7.65 3.85 -11.81 4.97 c -20 0 -39.99 0 -59.99 0 c -0.98 -1.37 -0.26 -2.26 0.99 -2.66 c 24.65 -8.07 46.58 -22.09 70.25 -32.3 C 618.18 87.59 619.14 87.33 620.16 87.67 z" stroke-linecap="round" />
</g>
		<g transform="matrix(1 0 0 1 -426.17 38.54)" id="Rentalika_home_xA0_Imagen_00000141417532500584156720000013882359583392318628_"  >
<path style="stroke: none; stroke-width: 1; stroke-dasharray: none; stroke-linecap: butt; stroke-dashoffset: 0; stroke-linejoin: miter; stroke-miterlimit: 4; fill: rgb(254,56,188); fill-rule: nonzero; opacity: 1;"  transform=" translate(-213.77, -100.11)" d="M 291.44 84.55 c -0.73 0.23 -1.46 0.45 -2.19 0.68 c -1.16 -0.29 -2.08 -0.96 -3 -1.68 c -4.06 -3.18 -8.29 -3.41 -13 -1.28 c -11 4.97 -21.91 10.15 -32.83 15.34 c 4.83 1.78 10.47 -0.06 14.83 3.54 c -14.35 6.86 -28.71 13.72 -43.06 20.59 c -0.73 0.35 -1.41 0.81 -2.11 1.22 c -24.66 0 -49.32 0 -73.99 0 c 8.79 -10.7 21.01 -15.41 33.77 -18.9 c 7.63 -2.09 15.49 -3.33 23.25 -4.95 c 11.93 -0.46 23.84 -1.56 35.79 -0.88 c 2.25 0.13 4.16 -0.94 6.11 -1.86 c 11.85 -5.56 23.71 -11.1 35.57 -16.64 C 279.81 75.42 284.93 76.61 291.44 84.55 z" stroke-linecap="round" />
</g>
		<g transform="matrix(1 0 0 1 227.51 49.26)" id="Rentalika_home_xA0_Imagen_00000141417532500584156720000013882359583392318628_"  >
<path style="stroke: none; stroke-width: 1; stroke-dasharray: none; stroke-linecap: butt; stroke-dashoffset: 0; stroke-linejoin: miter; stroke-miterlimit: 4; fill: rgb(168,249,90); fill-rule: nonzero; opacity: 1;"  transform=" translate(-867.45, -110.83)" d="M 910.06 106.97 c 5.38 4.04 9.16 9.07 9.88 15.99 c -34.99 0 -69.99 0 -104.98 0 c 0.33 -1.85 2.34 -2.3 3.14 -3.77 c 0.64 -1.34 1.81 -1.85 3.19 -2.02 c 1.57 -1.05 3.13 -2.1 4.7 -3.16 c 1.5 -0.72 3.26 -0.91 4.5 -2.16 c 1.49 -0.76 2.99 -1.51 4.48 -2.27 c 1.42 1.13 3.17 1.84 4.03 -0.19 c 1.15 -2.71 3.44 -3.15 5.72 -3.89 c 1.73 -0.33 2.72 0.95 3.92 1.79 c 5.95 4.17 12.23 2.98 16.35 -3.05 c 1.01 -1.48 1.27 -3.49 3.1 -4.39 c 5.57 -1.03 11.21 -0.75 16.83 -0.82 c 1.77 0.02 3.51 -0.33 5.28 -0.32 c 4.3 0.67 8.61 1.26 12.58 3.22 C 905.31 103.47 908.33 104.29 910.06 106.97 z" stroke-linecap="round" />
</g>
		<g transform="matrix(1 0 0 1 12.68 38.13)" id="Rentalika_home_xA0_Imagen_00000141417532500584156720000013882359583392318628_"  >
<path style="stroke: none; stroke-width: 1; stroke-dasharray: none; stroke-linecap: butt; stroke-dashoffset: 0; stroke-linejoin: miter; stroke-miterlimit: 4; fill: rgb(208,188,233); fill-rule: nonzero; opacity: 1;"  transform=" translate(-652.61, -99.7)" d="M 606 122.96 c 9.42 -5.83 19.71 -9.94 29.57 -14.91 c 4.13 -2.08 8.32 -4.07 12.46 -6.14 c 8.13 -4.06 10.28 -8.88 7.99 -17.79 c 1.93 -2.36 4.55 -3.37 7.46 -3.84 c 10.71 -1.3 21.4 -2.82 32.15 -3.85 c 3.45 2.25 4.58 7.06 2.67 11.71 c -1.38 3.37 -3.74 5.89 -7.07 7.39 c -18.02 8.12 -35.74 16.86 -53.76 24.99 c -2.12 0.96 -4.39 1.45 -6.47 2.44 C 622.66 122.96 614.33 122.96 606 122.96 z" stroke-linecap="round" />
</g>
		<g transform="matrix(1 0 0 1 -68.93 40.04)" id="Rentalika_home_xA0_Imagen_00000141417532500584156720000013882359583392318628_"  >
<path style="stroke: none; stroke-width: 1; stroke-dasharray: none; stroke-linecap: butt; stroke-dashoffset: 0; stroke-linejoin: miter; stroke-miterlimit: 4; fill: rgb(254,254,254); fill-rule: nonzero; opacity: 1;"  transform=" translate(-571, -101.61)" d="M 618.23 88.63 c -18.79 9.26 -37.34 19.09 -56.57 27.34 c -4.58 1.96 -8.55 7.43 -14.79 5.38 c -0.1 -0.03 -0.57 1.05 -0.87 1.61 c -6 0 -12 0 -18 0 c -1.08 -1.56 -3.53 -1.43 -4.25 -3.44 c 3.81 -4.19 9.18 -5.79 14.05 -8.05 c 20.15 -9.4 40.32 -18.75 60.4 -28.3 c 4.66 -2.21 9.44 -4.5 14.59 -1.4 C 615.42 83.34 618.53 84.68 618.23 88.63 z" stroke-linecap="round" />
</g>
		<g transform="matrix(1 0 0 1 626.81 -1.91)" id="Rentalika_home_xA0_Imagen_00000141417532500584156720000013882359583392318628_"  >
<path style="stroke: none; stroke-width: 1; stroke-dasharray: none; stroke-linecap: butt; stroke-dashoffset: 0; stroke-linejoin: miter; stroke-miterlimit: 4; fill: rgb(254,254,254); fill-rule: nonzero; opacity: 1;"  transform=" translate(-1266.74, -59.66)" d="M 1279.87 43.99 c 0 8.66 0 17.33 0 25.99 c -4.23 4.07 -9.26 6.28 -15.16 5.91 c -4.71 -0.3 -9.23 -4.18 -10.55 -8.65 c -1.49 -5.01 0.17 -11.88 4.15 -14.42 c 6.15 -3.93 13.03 -6.48 19.73 -9.33 C 1278.68 43.21 1279.33 43.56 1279.87 43.99 z" stroke-linecap="round" />
</g>
		<g transform="matrix(1 0 0 1 629.76 -44.88)" id="Rentalika_home_xA0_Imagen_00000141417532500584156720000013882359583392318628_"  >
<path style="stroke: none; stroke-width: 1; stroke-dasharray: none; stroke-linecap: butt; stroke-dashoffset: 0; stroke-linejoin: miter; stroke-miterlimit: 4; fill: rgb(254,254,254); fill-rule: nonzero; opacity: 1;"  transform=" translate(-1269.69, -16.69)" d="M 1279.87 2 c 0 8.66 0 17.33 0 25.99 c -2.91 4.3 -7.28 3.63 -11.24 2.73 c -4.27 -0.97 -7.35 -4.11 -8.47 -8.33 c -1.29 -4.85 -0.9 -9.88 3.49 -13.12 C 1268.45 5.71 1273.39 2.01 1279.87 2 z" stroke-linecap="round" />
</g>
		<g transform="matrix(1 0 0 1 -342.38 54.94)" id="Rentalika_home_xA0_Imagen_00000141417532500584156720000013882359583392318628_"  >
<path style="stroke: none; stroke-width: 1; stroke-dasharray: none; stroke-linecap: butt; stroke-dashoffset: 0; stroke-linejoin: miter; stroke-miterlimit: 4; fill: rgb(254,56,188); fill-rule: nonzero; opacity: 1;"  transform=" translate(-297.56, -116.51)" d="M 269.06 122.96 c 8.72 -4.99 17.93 -8.96 27.16 -12.89 c 4.61 1.63 9.21 3.26 13.82 4.9 c 5.09 3.16 11.19 4.3 16.01 7.99 C 307.06 122.96 288.06 122.96 269.06 122.96 z" stroke-linecap="round" />
</g>
		<g transform="matrix(1 0 0 1 -278.89 53.97)" id="Rentalika_home_xA0_Imagen_00000141417532500584156720000013882359583392318628_"  >
<path style="stroke: none; stroke-width: 1; stroke-dasharray: none; stroke-linecap: butt; stroke-dashoffset: 0; stroke-linejoin: miter; stroke-miterlimit: 4; fill: rgb(100,36,183); fill-rule: nonzero; opacity: 1;"  transform=" translate(-361.05, -115.54)" d="M 344.05 122.96 c 1.71 -7.85 6.23 -13.08 14.3 -14.54 c 6.61 -1.2 11.95 1.35 16.17 6.44 c 1.96 2.36 2.83 5.19 3.52 8.1 C 366.71 122.96 355.38 122.96 344.05 122.96 z" stroke-linecap="round" />
</g>
		<g transform="matrix(1 0 0 1 25.59 34.53)" id="Rentalika_home_xA0_Imagen_00000141417532500584156720000013882359583392318628_"  >
<path style="stroke: none; stroke-width: 1; stroke-dasharray: none; stroke-linecap: butt; stroke-dashoffset: 0; stroke-linejoin: miter; stroke-miterlimit: 4; fill: rgb(104,42,185); fill-rule: nonzero; opacity: 1;"  transform=" translate(-665.53, -96.1)" d="M 630.99 122.96 c 12.15 -6.79 25.07 -11.97 37.57 -18.03 c 7.46 -3.61 15.08 -6.91 22.49 -10.62 c 7.18 -3.59 8.98 -10.23 5.07 -17.49 c -7.41 -5.77 -14.56 -4.11 -21.98 0.26 c -3.34 1.97 -7.09 3.51 -11.1 3.97 c -2.34 1.02 -4.68 2.05 -7.02 3.07 c -0.35 -0.62 -0.7 -1.24 -1.06 -1.87 c 7.51 -3.46 15.02 -6.9 22.52 -10.37 c 10.42 -4.82 15.91 -3.28 22.26 6.28 c 1.25 11.24 -0.83 14.91 -10.86 19.58 c -16.39 7.63 -32.75 15.31 -49.11 23 c -1.32 0.62 -2.53 1.48 -3.79 2.23 C 634.33 122.96 632.66 122.96 630.99 122.96 z" stroke-linecap="round" />
</g>
		<g transform="matrix(1 0 0 1 -73.85 39.56)" id="Rentalika_home_xA0_Imagen_00000141417532500584156720000013882359583392318628_"  >
<path style="stroke: none; stroke-width: 1; stroke-dasharray: none; stroke-linecap: butt; stroke-dashoffset: 0; stroke-linejoin: miter; stroke-miterlimit: 4; fill: rgb(253,66,192); fill-rule: nonzero; opacity: 1;"  transform=" translate(-566.09, -101.13)" d="M 618.23 88.63 c -4.06 -6.71 -9.37 -9.09 -15.81 -6.09 c -25.6 11.89 -51.08 24.04 -76.59 36.12 c -0.72 0.34 -1.32 0.94 -1.97 1.42 c -1.33 2.22 -4.01 1.7 -5.84 2.89 c -2 0 -4 0 -6 0 c 4.46 -3.64 10.22 -4.8 15 -7.81 c 24.04 -11.18 48.07 -22.4 72.13 -33.54 c 9.63 -4.46 16.08 -2.53 21.01 6.07 C 619.52 87.99 618.88 88.31 618.23 88.63 z" stroke-linecap="round" />
</g>
		<g transform="matrix(1 0 0 1 626.16 -2.55)" id="Rentalika_home_xA0_Imagen_00000141417532500584156720000013882359583392318628_"  >
<path style="stroke: none; stroke-width: 1; stroke-dasharray: none; stroke-linecap: butt; stroke-dashoffset: 0; stroke-linejoin: miter; stroke-miterlimit: 4; fill: rgb(172,249,97); fill-rule: nonzero; opacity: 1;"  transform=" translate(-1266.09, -59.02)" d="M 1279.87 43.99 c -6.91 2.34 -13.48 5.51 -19.83 9.03 c -5.24 2.91 -6.96 9.81 -4.37 15.27 c 2.48 5.22 8.63 8.03 14.21 6.12 c 3.43 -1.17 6.66 -2.94 9.98 -4.44 c 0 1 0 2 0 3 c -2.58 0.1 -4.64 1.6 -6.89 2.58 c -7.96 3.49 -15.88 0.79 -19.27 -6.61 c -3.38 -7.37 -0.41 -15.18 7.36 -19.01 c 6.23 -3.07 12.53 -5.98 18.8 -8.96 C 1279.87 41.99 1279.87 42.99 1279.87 43.99 z" stroke-linecap="round" />
</g>
		<g transform="matrix(1 0 0 1 629.16 -45.29)" id="Rentalika_home_xA0_Imagen_00000141417532500584156720000013882359583392318628_"  >
<path style="stroke: none; stroke-width: 1; stroke-dasharray: none; stroke-linecap: butt; stroke-dashoffset: 0; stroke-linejoin: miter; stroke-miterlimit: 4; fill: rgb(109,50,188); fill-rule: nonzero; opacity: 1;"  transform=" translate(-1269.09, -16.28)" d="M 1279.87 2 c -3.6 1.6 -7.24 3.13 -10.8 4.83 c -7.78 3.71 -10.59 10.22 -7.37 16.82 c 3.3 6.78 10.29 8.44 18.17 4.34 c 0 1 0 2 0 3 c -3.51 0.79 -6.86 2.27 -10.66 1.2 c -5.63 -1.6 -9.23 -5.03 -10.49 -10.74 c -1.27 -5.73 0.39 -10.78 5.11 -14.06 c 4.84 -3.36 10.23 -5.95 16.05 -7.39 C 1279.87 0.67 1279.87 1.33 1279.87 2 z" stroke-linecap="round" />
</g>
		<g transform="matrix(1 0 0 1 -116.92 59.89)" id="Rentalika_home_xA0_Imagen_00000141417532500584156720000013882359583392318628_"  >
<path style="stroke: none; stroke-width: 1; stroke-dasharray: none; stroke-linecap: butt; stroke-dashoffset: 0; stroke-linejoin: miter; stroke-miterlimit: 4; fill: rgb(176,237,118); fill-rule: nonzero; opacity: 1;"  transform=" translate(-523.01, -121.46)" d="M 518.01 122.96 c 1.71 -1.45 3.7 -2.33 5.85 -2.89 c 2.26 -0.3 4.19 -0.13 4.15 2.89 C 524.68 122.96 521.35 122.96 518.01 122.96 z" stroke-linecap="round" />
</g>
		<g transform="matrix(1 0 0 1 147.81 59.05)" id="Rentalika_home_xA0_Imagen_00000141417532500584156720000013882359583392318628_"  >
<path style="stroke: none; stroke-width: 1; stroke-dasharray: none; stroke-linecap: butt; stroke-dashoffset: 0; stroke-linejoin: miter; stroke-miterlimit: 4; fill: rgb(248,245,251); fill-rule: nonzero; opacity: 1;"  transform=" translate(-787.75, -120.62)" d="M 785.96 122.96 c -0.18 -1.57 -1.09 -3.29 0.98 -4.38 c 0.85 -0.45 1.57 -0.4 2.24 0.29 c 1.41 1.44 0.38 2.76 -0.22 4.09 C 787.96 122.96 786.96 122.96 785.96 122.96 z" stroke-linecap="round" />
</g>
		<g transform="matrix(1 0 0 1 599.72 59.31)" id="Rentalika_home_xA0_Imagen_00000141417532500584156720000013882359583392318628_"  >
<path style="stroke: none; stroke-width: 1; stroke-dasharray: none; stroke-linecap: butt; stroke-dashoffset: 0; stroke-linejoin: miter; stroke-miterlimit: 4; fill: rgb(251,63,191); fill-rule: nonzero; opacity: 1;"  transform=" translate(-1239.66, -120.88)" d="M 1237.88 122.96 c 0.05 -1.32 -1.24 -2.92 0.69 -3.86 c 0.92 -0.45 1.96 -0.44 2.7 0.35 c 1.18 1.26 0.15 2.38 -0.39 3.51 C 1239.88 122.96 1238.88 122.96 1237.88 122.96 z" stroke-linecap="round" />
</g>
		<g transform="matrix(1 0 0 1 170.04 59.51)" id="Rentalika_home_xA0_Imagen_00000141417532500584156720000013882359583392318628_"  >
<path style="stroke: none; stroke-width: 1; stroke-dasharray: none; stroke-linecap: butt; stroke-dashoffset: 0; stroke-linejoin: miter; stroke-miterlimit: 4; fill: rgb(252,251,253); fill-rule: nonzero; opacity: 1;"  transform=" translate(-809.98, -121.08)" d="M 807.96 122.96 c 0.03 -1.67 -0.09 -3.73 2.18 -3.76 c 2.66 -0.03 1.6 2.3 1.82 3.76 C 810.63 122.96 809.29 122.96 807.96 122.96 z" stroke-linecap="round" />
</g>
		<g transform="matrix(1 0 0 1 -158.93 59.54)" id="Rentalika_home_xA0_Imagen_00000141417532500584156720000013882359583392318628_"  >
<path style="stroke: none; stroke-width: 1; stroke-dasharray: none; stroke-linecap: butt; stroke-dashoffset: 0; stroke-linejoin: miter; stroke-miterlimit: 4; fill: rgb(169,247,94); fill-rule: nonzero; opacity: 1;"  transform=" translate(-481.01, -121.11)" d="M 479.02 122.96 c -0.04 -1.63 -0.38 -3.7 1.98 -3.7 c 2.36 0 2.03 2.08 2.01 3.7 C 481.69 122.96 480.36 122.96 479.02 122.96 z" stroke-linecap="round" />
</g>
		<g transform="matrix(1 0 0 1 621.96 59.57)" id="Rentalika_home_xA0_Imagen_00000141417532500584156720000013882359583392318628_"  >
<path style="stroke: none; stroke-width: 1; stroke-dasharray: none; stroke-linecap: butt; stroke-dashoffset: 0; stroke-linejoin: miter; stroke-miterlimit: 4; fill: rgb(252,61,190); fill-rule: nonzero; opacity: 1;"  transform=" translate(-1261.9, -121.14)" d="M 1259.87 122.96 c 0 -1.61 -0.23 -3.64 2.04 -3.63 c 2.27 0.01 2.08 1.98 1.96 3.63 C 1262.54 122.96 1261.2 122.96 1259.87 122.96 z" stroke-linecap="round" />
</g>
		<g transform="matrix(1 0 0 1 -136.42 59.87)" id="Rentalika_home_xA0_Imagen_00000141417532500584156720000013882359583392318628_"  >
<path style="stroke: none; stroke-width: 1; stroke-dasharray: none; stroke-linecap: butt; stroke-dashoffset: 0; stroke-linejoin: miter; stroke-miterlimit: 4; fill: rgb(172,244,102); fill-rule: nonzero; opacity: 1;"  transform=" translate(-503.51, -121.44)" d="M 501.02 122.96 c 0.03 -1.64 0.51 -3.02 2.41 -3.04 c 1.93 -0.02 2.24 1.59 2.58 3.04 C 504.35 122.96 502.68 122.96 501.02 122.96 z" stroke-linecap="round" />
</g>
		<g transform="matrix(1 0 0 1 71.55 60.35)" id="Rentalika_home_xA0_Imagen_00000141417532500584156720000013882359583392318628_"  >
<path style="stroke: none; stroke-width: 1; stroke-dasharray: none; stroke-linecap: butt; stroke-dashoffset: 0; stroke-linejoin: miter; stroke-miterlimit: 4; fill: rgb(250,249,252); fill-rule: nonzero; opacity: 1;"  transform=" translate(-711.48, -121.92)" d="M 708.98 122.96 c 1.67 -2.64 3.33 -2.88 5 0 C 712.31 122.96 710.64 122.96 708.98 122.96 z" stroke-linecap="round" />
</g>
		<g transform="matrix(1 0 0 1 638.86 51.39)" id="Rentalika_home_xA0_Imagen_00000141417532500584156720000013882359583392318628_"  >
<path style="stroke: none; stroke-width: 1; stroke-dasharray: none; stroke-linecap: butt; stroke-dashoffset: 0; stroke-linejoin: miter; stroke-miterlimit: 4; fill: rgb(254,71,193); fill-rule: nonzero; opacity: 1;"  transform=" translate(-1278.8, -112.96)" d="M 1279.87 114.96 c -2.79 -1.33 -2.93 -2.67 0 -4 C 1279.87 112.3 1279.87 113.63 1279.87 114.96 z" stroke-linecap="round" />
</g>
		<g transform="matrix(1 0 0 1 94.04 60.48)" id="Rentalika_home_xA0_Imagen_00000141417532500584156720000013882359583392318628_"  >
<path style="stroke: none; stroke-width: 1; stroke-dasharray: none; stroke-linecap: butt; stroke-dashoffset: 0; stroke-linejoin: miter; stroke-miterlimit: 4; fill: rgb(247,244,251); fill-rule: nonzero; opacity: 1;"  transform=" translate(-733.97, -122.05)" d="M 731.97 122.96 c 1.33 -2.43 2.67 -2.43 4 0 C 734.64 122.96 733.31 122.96 731.97 122.96 z" stroke-linecap="round" />
</g>
		<g transform="matrix(1 0 0 1 -638.8 36.4)" id="Rentalika_home_xA0_Imagen_00000141417532500584156720000013882359583392318628_"  >
<path style="stroke: none; stroke-width: 1; stroke-dasharray: none; stroke-linecap: butt; stroke-dashoffset: 0; stroke-linejoin: miter; stroke-miterlimit: 4; fill: rgb(250,254,246); fill-rule: nonzero; opacity: 1;"  transform=" translate(-1.13, -97.97)" d="M 0.11 95.97 c 2.73 1.33 2.73 2.67 0 4 C 0.11 98.64 0.11 97.3 0.11 95.97 z" stroke-linecap="round" />
</g>
		<g transform="matrix(1 0 0 1 -638.8 46.4)" id="Rentalika_home_xA0_Imagen_00000141417532500584156720000013882359583392318628_"  >
<path style="stroke: none; stroke-width: 1; stroke-dasharray: none; stroke-linecap: butt; stroke-dashoffset: 0; stroke-linejoin: miter; stroke-miterlimit: 4; fill: rgb(250,254,246); fill-rule: nonzero; opacity: 1;"  transform=" translate(-1.13, -107.97)" d="M 0.11 105.97 c 2.73 1.33 2.73 2.67 0 4 C 0.11 108.63 0.11 107.3 0.11 105.97 z" stroke-linecap="round" />
</g>
		<g transform="matrix(1 0 0 1 -638.8 56.39)" id="Rentalika_home_xA0_Imagen_00000141417532500584156720000013882359583392318628_"  >
<path style="stroke: none; stroke-width: 1; stroke-dasharray: none; stroke-linecap: butt; stroke-dashoffset: 0; stroke-linejoin: miter; stroke-miterlimit: 4; fill: rgb(250,254,246); fill-rule: nonzero; opacity: 1;"  transform=" translate(-1.13, -117.96)" d="M 0.11 115.96 c 2.73 1.33 2.73 2.67 0 4 C 0.11 118.63 0.11 117.3 0.11 115.96 z" stroke-linecap="round" />
</g>
		<g transform="matrix(1 0 0 1 215.72 37.05)" id="Rentalika_home_xA0_Imagen_00000141417532500584156720000013882359583392318628_"  >
<path style="stroke: none; stroke-width: 1; stroke-dasharray: none; stroke-linecap: butt; stroke-dashoffset: 0; stroke-linejoin: miter; stroke-miterlimit: 4; fill: rgb(254,56,188); fill-rule: nonzero; opacity: 1;"  transform=" translate(-855.65, -98.62)" d="M 868.1 99.86 c -1.85 11.98 -16.31 15.43 -23.37 5.65 c -3.17 -8.15 -1.33 -14.78 5.01 -17.97 C 858.58 83.1 867.19 88.88 868.1 99.86 z" stroke-linecap="round" />
</g>
		<g transform="matrix(1 0 0 1 288.82 21.3)" id="Rentalika_home_xA0_Imagen_00000141417532500584156720000013882359583392318628_"  >
<path style="stroke: none; stroke-width: 1; stroke-dasharray: none; stroke-linecap: butt; stroke-dashoffset: 0; stroke-linejoin: miter; stroke-miterlimit: 4; fill: rgb(106,45,186); fill-rule: nonzero; opacity: 1;"  transform=" translate(-928.75, -82.87)" d="M 971.39 76.08 c -0.59 0.39 -1.18 0.79 -1.76 1.18 c -6.4 -8.88 -13.67 -8.25 -22.86 -3.7 c -16.82 8.31 -33.81 16.34 -50.98 23.94 c -1.99 0.88 -3.97 1.68 -6.14 1.94 c -1.18 -0.44 -3.12 1.09 -3.53 -1.36 c 21.39 -9.91 42.8 -19.79 64.16 -29.76 c 4.6 -2.15 9.1 -3.05 13.86 -0.68 C 967.75 69.44 970.22 72.2 971.39 76.08 z" stroke-linecap="round" />
</g>
		<g transform="matrix(1 0 0 1 236.01 14.5)" id="Rentalika_home_xA0_Imagen_00000141417532500584156720000013882359583392318628_"  >
<path style="stroke: none; stroke-width: 1; stroke-dasharray: none; stroke-linecap: butt; stroke-dashoffset: 0; stroke-linejoin: miter; stroke-miterlimit: 4; fill: rgb(102,39,184); fill-rule: nonzero; opacity: 1;"  transform=" translate(-875.94, -76.07)" d="M 876.14 69.08 c 3.72 0.11 6.83 3.37 6.79 7.12 c -0.04 4.03 -3.35 7.09 -7.43 6.86 c -3.84 -0.22 -6.71 -3.4 -6.54 -7.25 C 869.13 72.07 872.44 68.96 876.14 69.08 z" stroke-linecap="round" />
</g>
		<g transform="matrix(1 0 0 1 469.96 49.56)" id="Rentalika_home_xA0_Imagen_00000141417532500584156720000013882359583392318628_"  >
<path style="stroke: none; stroke-width: 1; stroke-dasharray: none; stroke-linecap: butt; stroke-dashoffset: 0; stroke-linejoin: miter; stroke-miterlimit: 4; fill: rgb(169,249,91); fill-rule: nonzero; opacity: 1;"  transform=" translate(-1109.9, -111.13)" d="M 1116.12 114.86 c -4.76 4.43 -7.66 4.44 -12.43 0.03 c -1.47 -3.79 -0.99 -7.12 2.51 -9.56 c 2.39 -1.66 4.97 -1.67 7.37 -0.02 C 1117.08 107.74 1117.58 111.06 1116.12 114.86 z" stroke-linecap="round" />
</g>
		<g transform="matrix(1 0 0 1 -304.73 46.59)" id="Rentalika_home_xA0_Imagen_00000141417532500584156720000013882359583392318628_"  >
<path style="stroke: none; stroke-width: 1; stroke-dasharray: none; stroke-linecap: butt; stroke-dashoffset: 0; stroke-linejoin: miter; stroke-miterlimit: 4; fill: rgb(169,249,91); fill-rule: nonzero; opacity: 1;"  transform=" translate(-335.2, -108.16)" d="M 342.21 107.92 c -0.34 3.39 -1.76 6.07 -5.27 6.94 c -3.87 0.96 -6.67 -0.79 -8.73 -3.99 c -0.2 -5.72 1.59 -9.05 5.65 -9.58 C 338.71 100.65 341.17 103.51 342.21 107.92 z" stroke-linecap="round" />
</g>
		<g transform="matrix(1 0 0 1 -118.36 51.8)" id="Rentalika_home_xA0_Imagen_00000141417532500584156720000013882359583392318628_"  >
<path style="stroke: none; stroke-width: 1; stroke-dasharray: none; stroke-linecap: butt; stroke-dashoffset: 0; stroke-linejoin: miter; stroke-miterlimit: 4; fill: rgb(178,239,119); fill-rule: nonzero; opacity: 1;"  transform=" translate(-521.57, -113.37)" d="M 524.1 113.83 c -1.13 1.69 -2.51 3.05 -4.34 1.05 c -1.58 -1.73 -0.24 -3 1.24 -4.01 C 522.77 111.1 523.79 112.09 524.1 113.83 z" stroke-linecap="round" />
</g>
		<g transform="matrix(1 0 0 1 -95.53 30.17)" id="Rentalika_home_xA0_Imagen_00000141417532500584156720000013882359583392318628_"  >
<path style="stroke: none; stroke-width: 1; stroke-dasharray: none; stroke-linecap: butt; stroke-dashoffset: 0; stroke-linejoin: miter; stroke-miterlimit: 4; fill: rgb(181,250,114); fill-rule: nonzero; opacity: 1;"  transform=" translate(-544.41, -91.74)" d="M 544.56 93.93 c -1.37 -0.09 -2.26 -0.78 -2.39 -2.11 c -0.14 -1.44 0.87 -2.19 2.12 -2.27 c 1.33 -0.09 2.25 0.82 2.36 2.09 C 546.78 92.99 545.86 93.73 544.56 93.93 z" stroke-linecap="round" />
</g>
		<g transform="matrix(1 0 0 1 -91.3 39.2)" id="Rentalika_home_xA0_Imagen_00000141417532500584156720000013882359583392318628_"  >
<path style="stroke: none; stroke-width: 1; stroke-dasharray: none; stroke-linecap: butt; stroke-dashoffset: 0; stroke-linejoin: miter; stroke-miterlimit: 4; fill: rgb(177,250,107); fill-rule: nonzero; opacity: 1;"  transform=" translate(-548.63, -100.77)" d="M 548.56 102.94 c -1.33 -0.15 -2.24 -0.89 -2.15 -2.22 c 0.09 -1.25 0.96 -2.19 2.3 -2.11 c 1.25 0.07 2.26 0.77 2.14 2.21 C 550.76 102.14 549.9 102.85 548.56 102.94 z" stroke-linecap="round" />
</g>
		<g transform="matrix(1 0 0 1 -122.74 42.91)" id="Rentalika_home_xA0_Imagen_00000141417532500584156720000013882359583392318628_"  >
<path style="stroke: none; stroke-width: 1; stroke-dasharray: none; stroke-linecap: butt; stroke-dashoffset: 0; stroke-linejoin: miter; stroke-miterlimit: 4; fill: rgb(179,250,109); fill-rule: nonzero; opacity: 1;"  transform=" translate(-517.2, -104.48)" d="M 516.07 106.92 c -0.74 -1.46 -1.89 -2.94 -0.02 -4.39 c 0.7 -0.54 1.63 -0.72 2.28 -0.07 c 0.53 0.53 1.1 1.42 1.02 2.08 c -0.21 1.85 -1.74 2.21 -3.31 2.33 C 516.03 106.88 516.07 106.92 516.07 106.92 z" stroke-linecap="round" />
</g>
		<g transform="matrix(1 0 0 1 388.64 46.58)" id="Rentalika_home_xA0_Imagen_00000141417532500584156720000013882359583392318628_"  >
<path style="stroke: none; stroke-width: 1; stroke-dasharray: none; stroke-linecap: butt; stroke-dashoffset: 0; stroke-linejoin: miter; stroke-miterlimit: 4; fill: rgb(172,246,100); fill-rule: nonzero; opacity: 1;"  transform=" translate(-1028.58, -108.15)" d="M 1030.86 107.1 c 0.09 2.11 -0.59 3.79 -3 3.03 c -2.04 -0.64 -1.84 -2.36 -0.83 -3.96 C 1028.48 105.72 1029.73 106.15 1030.86 107.1 z" stroke-linecap="round" />
</g>
		<g transform="matrix(1 0 0 1 398.55 46.57)" id="Rentalika_home_xA0_Imagen_00000141417532500584156720000013882359583392318628_"  >
<path style="stroke: none; stroke-width: 1; stroke-dasharray: none; stroke-linecap: butt; stroke-dashoffset: 0; stroke-linejoin: miter; stroke-miterlimit: 4; fill: rgb(176,247,106); fill-rule: nonzero; opacity: 1;"  transform=" translate(-1038.49, -108.14)" d="M 1041 108.95 c -2.19 2.42 -3.79 1.7 -5.03 -0.94 C 1038.27 104.97 1040 104.99 1041 108.95 z" stroke-linecap="round" />
</g>
		<g transform="matrix(1 0 0 1 408.63 46.62)" id="Rentalika_home_xA0_Imagen_00000141417532500584156720000013882359583392318628_"  >
<path style="stroke: none; stroke-width: 1; stroke-dasharray: none; stroke-linecap: butt; stroke-dashoffset: 0; stroke-linejoin: miter; stroke-miterlimit: 4; fill: rgb(174,249,101); fill-rule: nonzero; opacity: 1;"  transform=" translate(-1048.57, -108.19)" d="M 1049.91 110.2 c -1.09 0.35 -2.14 0.21 -3.16 -0.28 c -0.46 -1.29 -0.88 -2.63 0.58 -3.55 c 0.92 -0.58 1.92 -0.52 2.73 0.31 C 1051.25 107.9 1050.9 109.07 1049.91 110.2 z" stroke-linecap="round" />
</g>
		<g transform="matrix(1 0 0 1 613.59 41.51)" id="Rentalika_home_xA0_Imagen_00000141417532500584156720000013882359583392318628_"  >
<path style="stroke: none; stroke-width: 1; stroke-dasharray: none; stroke-linecap: butt; stroke-dashoffset: 0; stroke-linejoin: miter; stroke-miterlimit: 4; fill: rgb(254,79,196); fill-rule: nonzero; opacity: 1;"  transform=" translate(-1253.52, -103.08)" d="M 1254.83 105.13 c -1.39 0.1 -2.65 -0.16 -3.63 -1.24 c 0.01 -2.03 0.98 -3.41 3.02 -2.67 C 1256.16 101.93 1256.37 103.55 1254.83 105.13 z" stroke-linecap="round" />
</g>
		<g transform="matrix(1 0 0 1 -109.41 47.6)" id="Rentalika_home_xA0_Imagen_00000141417532500584156720000013882359583392318628_"  >
<path style="stroke: none; stroke-width: 1; stroke-dasharray: none; stroke-linecap: butt; stroke-dashoffset: 0; stroke-linejoin: miter; stroke-miterlimit: 4; fill: rgb(181,250,113); fill-rule: nonzero; opacity: 1;"  transform=" translate(-530.52, -109.17)" d="M 530.6 106.98 c 1.31 0.19 2.22 0.91 2.14 2.24 c -0.08 1.28 -1.01 2.2 -2.29 2.14 c -1.25 -0.06 -2.19 -0.97 -2.15 -2.28 C 528.35 107.77 529.25 107.05 530.6 106.98 z" stroke-linecap="round" />
</g>
		<g transform="matrix(1 0 0 1 -104.54 34.35)" id="Rentalika_home_xA0_Imagen_00000141417532500584156720000013882359583392318628_"  >
<path style="stroke: none; stroke-width: 1; stroke-dasharray: none; stroke-linecap: butt; stroke-dashoffset: 0; stroke-linejoin: miter; stroke-miterlimit: 4; fill: rgb(175,249,102); fill-rule: nonzero; opacity: 1;"  transform=" translate(-535.39, -95.92)" d="M 535.22 93.87 c 1.48 0.11 2.38 0.76 2.33 2.15 c -0.04 1.08 -0.72 1.83 -1.87 1.93 c -1.35 0.12 -2.32 -0.51 -2.44 -1.86 C 533.12 94.71 534.07 94.07 535.22 93.87 z" stroke-linecap="round" />
</g>
		<g transform="matrix(1 0 0 1 622.63 37.44)" id="Rentalika_home_xA0_Imagen_00000141417532500584156720000013882359583392318628_"  >
<path style="stroke: none; stroke-width: 1; stroke-dasharray: none; stroke-linecap: butt; stroke-dashoffset: 0; stroke-linejoin: miter; stroke-miterlimit: 4; fill: rgb(254,71,193); fill-rule: nonzero; opacity: 1;"  transform=" translate(-1262.56, -99.01)" d="M 1264.75 98.89 c -0.06 1.39 -0.85 2.09 -2.2 2.17 c -1.16 0.07 -1.98 -0.62 -2.14 -1.68 c -0.2 -1.3 0.46 -2.28 1.88 -2.42 C 1263.64 96.84 1264.48 97.5 1264.75 98.89 z" stroke-linecap="round" />
</g>
		<g transform="matrix(1 0 0 1 -113.65 38.49)" id="Rentalika_home_xA0_Imagen_00000141417532500584156720000013882359583392318628_"  >
<path style="stroke: none; stroke-width: 1; stroke-dasharray: none; stroke-linecap: butt; stroke-dashoffset: 0; stroke-linejoin: miter; stroke-miterlimit: 4; fill: rgb(177,249,106); fill-rule: nonzero; opacity: 1;"  transform=" translate(-526.29, -100.06)" d="M 528.45 100.27 c -0.23 1.43 -1.14 1.96 -2.47 1.83 c -1.11 -0.1 -1.89 -0.7 -1.85 -1.9 c 0.04 -1.36 0.86 -2.16 2.2 -2.19 C 527.78 97.98 528.3 99 528.45 100.27 z" stroke-linecap="round" />
</g>
		<g transform="matrix(1 0 0 1 635.94 42.34)" id="Rentalika_home_xA0_Imagen_00000141417532500584156720000013882359583392318628_"  >
<path style="stroke: none; stroke-width: 1; stroke-dasharray: none; stroke-linecap: butt; stroke-dashoffset: 0; stroke-linejoin: miter; stroke-miterlimit: 4; fill: rgb(254,69,193); fill-rule: nonzero; opacity: 1;"  transform=" translate(-1275.87, -103.91)" d="M 1275.9 105.97 c -1.3 -0.04 -2.05 -0.73 -2.06 -2.1 c -0.01 -1.12 0.57 -1.87 1.7 -1.99 c 1.28 -0.13 2.27 0.36 2.36 1.8 C 1277.99 105.01 1277.37 105.85 1275.9 105.97 z" stroke-linecap="round" />
</g>
		<g transform="matrix(1 0 0 1 -100.37 43.42)" id="Rentalika_home_xA0_Imagen_00000141417532500584156720000013882359583392318628_"  >
<path style="stroke: none; stroke-width: 1; stroke-dasharray: none; stroke-linecap: butt; stroke-dashoffset: 0; stroke-linejoin: miter; stroke-miterlimit: 4; fill: rgb(175,249,102); fill-rule: nonzero; opacity: 1;"  transform=" translate(-539.57, -104.99)" d="M 539.57 107.04 c -1.32 -0.14 -2.23 -0.8 -2.16 -2.19 c 0.06 -1.08 0.77 -1.81 1.91 -1.9 c 1.36 -0.11 2.3 0.56 2.4 1.9 C 541.84 106.25 540.87 106.88 539.57 107.04 z" stroke-linecap="round" />
</g>
		<g transform="matrix(1 0 0 1 626.89 46.45)" id="Rentalika_home_xA0_Imagen_00000141417532500584156720000013882359583392318628_"  >
<path style="stroke: none; stroke-width: 1; stroke-dasharray: none; stroke-linecap: butt; stroke-dashoffset: 0; stroke-linejoin: miter; stroke-miterlimit: 4; fill: rgb(254,69,193); fill-rule: nonzero; opacity: 1;"  transform=" translate(-1266.83, -108.02)" d="M 1266.57 105.96 c 1.63 0.14 2.35 0.88 2.29 2.24 c -0.07 1.43 -0.99 1.97 -2.3 1.88 c -1.14 -0.08 -1.73 -0.78 -1.77 -1.91 C 1264.75 106.77 1265.53 106.12 1266.57 105.96 z" stroke-linecap="round" />
</g>
		<g transform="matrix(1 0 0 1 631.79 33.32)" id="Rentalika_home_xA0_Imagen_00000141417532500584156720000013882359583392318628_"  >
<path style="stroke: none; stroke-width: 1; stroke-dasharray: none; stroke-linecap: butt; stroke-dashoffset: 0; stroke-linejoin: miter; stroke-miterlimit: 4; fill: rgb(254,66,192); fill-rule: nonzero; opacity: 1;"  transform=" translate(-1271.73, -94.89)" d="M 1271.99 96.93 c -1.82 -0.09 -2.34 -0.99 -2.29 -2.27 c 0.05 -1.11 0.71 -1.79 1.84 -1.81 c 1.28 -0.02 2.23 0.51 2.22 1.94 C 1273.76 96.16 1272.81 96.69 1271.99 96.93 z" stroke-linecap="round" />
</g>
		<g transform="matrix(1 0 0 1 631.05 55.36)" id="Rentalika_home_xA0_Imagen_00000141417532500584156720000013882359583392318628_"  >
<path style="stroke: none; stroke-width: 1; stroke-dasharray: none; stroke-linecap: butt; stroke-dashoffset: 0; stroke-linejoin: miter; stroke-miterlimit: 4; fill: rgb(253,63,191); fill-rule: nonzero; opacity: 1;"  transform=" translate(-1270.99, -116.93)" d="M 1273.02 115.99 c -0.08 1.26 0.13 2.74 -1.65 3.02 c -0.99 0.16 -2.01 -0.06 -2.32 -1.21 c -0.42 -1.56 0.6 -2.36 1.82 -2.99 C 1271.59 115.21 1272.3 115.6 1273.02 115.99 z" stroke-linecap="round" />
</g>
		<g transform="matrix(1 0 0 1 247.69 37.44)" id="Rentalika_home_xA0_Imagen_00000141417532500584156720000013882359583392318628_"  >
<path style="stroke: none; stroke-width: 1; stroke-dasharray: none; stroke-linecap: butt; stroke-dashoffset: 0; stroke-linejoin: miter; stroke-miterlimit: 4; fill: rgb(235,253,217); fill-rule: nonzero; opacity: 1;"  transform=" translate(-887.63, -99.01)" d="M 886.11 98.09 c 0.95 1.58 2.57 0.59 3.82 1 c 0.34 0.14 0.45 0.3 0.36 0.47 c -0.1 0.18 -0.2 0.27 -0.31 0.27 c -1.73 0.06 -3.52 0.45 -5.05 -0.78 C 885.32 98.72 885.72 98.41 886.11 98.09 z" stroke-linecap="round" />
</g>
		<g transform="matrix(1 0 0 1 143.54 49.9)" id="Rentalika_home_xA0_Imagen_00000141417532500584156720000013882359583392318628_"  >
<path style="stroke: none; stroke-width: 1; stroke-dasharray: none; stroke-linecap: butt; stroke-dashoffset: 0; stroke-linejoin: miter; stroke-miterlimit: 4; fill: rgb(245,241,250); fill-rule: nonzero; opacity: 1;"  transform=" translate(-783.48, -111.47)" d="M 785.81 111.75 c -0.25 1.25 -1.05 2.1 -2.34 2.05 c -1.51 -0.05 -2.49 -0.99 -2.31 -2.57 c 0.18 -1.52 1.22 -2.34 2.78 -2.03 C 785.22 109.45 785.86 110.37 785.81 111.75 z" stroke-linecap="round" />
</g>
		<g transform="matrix(1 0 0 1 148.44 36.67)" id="Rentalika_home_xA0_Imagen_00000141417532500584156720000013882359583392318628_"  >
<path style="stroke: none; stroke-width: 1; stroke-dasharray: none; stroke-linecap: butt; stroke-dashoffset: 0; stroke-linejoin: miter; stroke-miterlimit: 4; fill: rgb(249,247,252); fill-rule: nonzero; opacity: 1;"  transform=" translate(-788.37, -98.24)" d="M 788.31 100.41 c -1.15 -0.33 -2.3 -0.73 -2.18 -2.21 c 0.11 -1.31 0.98 -2.11 2.28 -2.12 c 1.3 -0.01 2.33 0.73 2.2 2.08 C 790.49 99.35 789.58 100.18 788.31 100.41 z" stroke-linecap="round" />
</g>
		<g transform="matrix(1 0 0 1 139.29 40.8)" id="Rentalika_home_xA0_Imagen_00000141417532500584156720000013882359583392318628_"  >
<path style="stroke: none; stroke-width: 1; stroke-dasharray: none; stroke-linecap: butt; stroke-dashoffset: 0; stroke-linejoin: miter; stroke-miterlimit: 4; fill: rgb(245,241,250); fill-rule: nonzero; opacity: 1;"  transform=" translate(-779.23, -102.37)" d="M 779.46 100.1 c 1.36 0.22 2.01 1.22 1.89 2.43 c -0.12 1.22 -1.1 2.13 -2.37 2.1 c -1.38 -0.03 -1.99 -1.1 -1.87 -2.4 C 777.23 100.91 778.11 100.22 779.46 100.1 z" stroke-linecap="round" />
</g>
		<g transform="matrix(1 0 0 1 130.32 45.01)" id="Rentalika_home_xA0_Imagen_00000141417532500584156720000013882359583392318628_"  >
<path style="stroke: none; stroke-width: 1; stroke-dasharray: none; stroke-linecap: butt; stroke-dashoffset: 0; stroke-linejoin: miter; stroke-miterlimit: 4; fill: rgb(249,247,252); fill-rule: nonzero; opacity: 1;"  transform=" translate(-770.25, -106.58)" d="M 772.42 106.53 c -0.28 1.16 -0.67 2.33 -2.11 2.29 c -1.3 -0.03 -2.15 -0.88 -2.22 -2.18 c -0.07 -1.29 0.61 -2.34 1.98 -2.29 C 771.31 104.38 772.08 105.32 772.42 106.53 z" stroke-linecap="round" />
</g>
		<g transform="matrix(1 0 0 1 152.64 45.65)" id="Rentalika_home_xA0_Imagen_00000141417532500584156720000013882359583392318628_"  >
<path style="stroke: none; stroke-width: 1; stroke-dasharray: none; stroke-linecap: butt; stroke-dashoffset: 0; stroke-linejoin: miter; stroke-miterlimit: 4; fill: rgb(247,244,251); fill-rule: nonzero; opacity: 1;"  transform=" translate(-792.58, -107.22)" d="M 794.84 107.32 c -0.13 1.43 -1.16 2.08 -2.33 2.03 c -1.23 -0.05 -2.15 -1.05 -2.19 -2.28 c -0.04 -1.37 1 -2.05 2.3 -1.98 C 793.93 105.17 794.66 106.03 794.84 107.32 z" stroke-linecap="round" />
</g>
		<g transform="matrix(1 0 0 1 98.98 48.77)" id="Rentalika_home_xA0_Imagen_00000141417532500584156720000013882359583392318628_"  >
<path style="stroke: none; stroke-width: 1; stroke-dasharray: none; stroke-linecap: butt; stroke-dashoffset: 0; stroke-linejoin: miter; stroke-miterlimit: 4; fill: rgb(249,247,252); fill-rule: nonzero; opacity: 1;"  transform=" translate(-738.91, -110.34)" d="M 738.78 108.12 c 1.23 0.16 2.04 0.94 2.06 2.23 c 0.02 1.26 -0.62 2.32 -2.04 2.19 c -1.36 -0.13 -1.83 -1.21 -1.82 -2.48 C 737 108.95 737.41 108.15 738.78 108.12 z" stroke-linecap="round" />
</g>
		<g transform="matrix(1 0 0 1 188.32 51.11)" id="Rentalika_home_xA0_Imagen_00000141417532500584156720000013882359583392318628_"  >
<path style="stroke: none; stroke-width: 1; stroke-dasharray: none; stroke-linecap: butt; stroke-dashoffset: 0; stroke-linejoin: miter; stroke-miterlimit: 4; fill: rgb(250,252,248); fill-rule: nonzero; opacity: 1;"  transform=" translate(-828.25, -112.68)" d="M 830.5 111.86 c -0.29 3.24 -1.92 3.71 -4.5 2.16 C 826.06 110.3 827.47 109.4 830.5 111.86 z" stroke-linecap="round" />
</g>
		<g transform="matrix(1 0 0 1 89.8 52.88)" id="Rentalika_home_xA0_Imagen_00000141417532500584156720000013882359583392318628_"  >
<path style="stroke: none; stroke-width: 1; stroke-dasharray: none; stroke-linecap: butt; stroke-dashoffset: 0; stroke-linejoin: miter; stroke-miterlimit: 4; fill: rgb(248,245,251); fill-rule: nonzero; opacity: 1;"  transform=" translate(-729.74, -114.45)" d="M 730.05 112.25 c 1.27 0.32 1.94 1.16 1.79 2.44 c -0.14 1.25 -0.87 2.19 -2.24 1.9 c -1.12 -0.24 -2.17 -1.05 -1.96 -2.34 C 727.84 113.1 728.78 112.37 730.05 112.25 z" stroke-linecap="round" />
</g>
		<g transform="matrix(1 0 0 1 134.57 54.15)" id="Rentalika_home_xA0_Imagen_00000141417532500584156720000013882359583392318628_"  >
<path style="stroke: none; stroke-width: 1; stroke-dasharray: none; stroke-linecap: butt; stroke-dashoffset: 0; stroke-linejoin: miter; stroke-miterlimit: 4; fill: rgb(247,244,251); fill-rule: nonzero; opacity: 1;"  transform=" translate(-774.51, -115.72)" d="M 776.76 115.98 c -0.6 1.46 -1.47 2.11 -2.74 1.81 c -1.2 -0.28 -2.13 -1.05 -1.62 -2.41 c 0.39 -1.02 1.09 -2.15 2.48 -1.7 C 776.03 114.04 776.58 115.03 776.76 115.98 z" stroke-linecap="round" />
</g>
		<g transform="matrix(1 0 0 1 156.96 54.76)" id="Rentalika_home_xA0_Imagen_00000141417532500584156720000013882359583392318628_"  >
<path style="stroke: none; stroke-width: 1; stroke-dasharray: none; stroke-linecap: butt; stroke-dashoffset: 0; stroke-linejoin: miter; stroke-miterlimit: 4; fill: rgb(249,247,252); fill-rule: nonzero; opacity: 1;"  transform=" translate(-796.9, -116.33)" d="M 796.64 114.07 c 1.54 0.41 2.3 1.2 2.18 2.53 c -0.12 1.32 -0.93 2.23 -2.27 1.92 c -1.26 -0.29 -1.67 -1.43 -1.57 -2.71 C 795.08 114.59 795.82 114.17 796.64 114.07 z" stroke-linecap="round" />
</g>
		<g transform="matrix(1 0 0 1 80.74 57.13)" id="Rentalika_home_xA0_Imagen_00000141417532500584156720000013882359583392318628_"  >
<path style="stroke: none; stroke-width: 1; stroke-dasharray: none; stroke-linecap: butt; stroke-dashoffset: 0; stroke-linejoin: miter; stroke-miterlimit: 4; fill: rgb(249,247,252); fill-rule: nonzero; opacity: 1;"  transform=" translate(-720.68, -118.7)" d="M 718.51 118.5 c 0.41 -1.14 1.02 -2.15 2.45 -1.89 c 1.01 0.18 1.92 0.77 1.88 1.97 c -0.05 1.33 -0.88 2.2 -2.2 2.25 C 719.19 120.88 718.77 119.73 718.51 118.5 z" stroke-linecap="round" />
</g>
		<g transform="matrix(1 0 0 1 135.06 31.87)" id="Rentalika_home_xA0_Imagen_00000141417532500584156720000013882359583392318628_"  >
<path style="stroke: none; stroke-width: 1; stroke-dasharray: none; stroke-linecap: butt; stroke-dashoffset: 0; stroke-linejoin: miter; stroke-miterlimit: 4; fill: rgb(250,249,252); fill-rule: nonzero; opacity: 1;"  transform=" translate(-774.99, -93.44)" d="M 776.91 93.58 c -0.17 1.1 -0.69 1.97 -1.84 1.99 c -1.42 0.02 -2.04 -0.98 -1.99 -2.29 c 0.05 -1.08 0.66 -1.96 1.8 -1.98 C 776.32 91.28 776.83 92.3 776.91 93.58 z" stroke-linecap="round" />
</g>
		<g transform="matrix(1 0 0 1 157.51 32.41)" id="Rentalika_home_xA0_Imagen_00000141417532500584156720000013882359583392318628_"  >
<path style="stroke: none; stroke-width: 1; stroke-dasharray: none; stroke-linecap: butt; stroke-dashoffset: 0; stroke-linejoin: miter; stroke-miterlimit: 4; fill: rgb(251,249,253); fill-rule: nonzero; opacity: 1;"  transform=" translate(-797.45, -93.98)" d="M 797.4 95.91 c -1.09 -0.12 -1.99 -0.63 -2.08 -1.75 c -0.12 -1.43 0.88 -2.09 2.18 -2.1 c 1.09 -0.01 1.98 0.62 2.08 1.72 C 799.7 95.21 798.69 95.77 797.4 95.91 z" stroke-linecap="round" />
</g>
		<g transform="matrix(1 0 0 1 126.04 35.91)" id="Rentalika_home_xA0_Imagen_00000141417532500584156720000013882359583392318628_"  >
<path style="stroke: none; stroke-width: 1; stroke-dasharray: none; stroke-linecap: butt; stroke-dashoffset: 0; stroke-linejoin: miter; stroke-miterlimit: 4; fill: rgb(251,249,252); fill-rule: nonzero; opacity: 1;"  transform=" translate(-765.97, -97.48)" d="M 765.65 95.31 c 1.3 0.04 2 0.67 2.19 1.76 c 0.23 1.33 -0.35 2.34 -1.68 2.55 c -1.13 0.18 -1.83 -0.62 -2.04 -1.7 C 763.84 96.56 764.57 95.77 765.65 95.31 z" stroke-linecap="round" />
</g>
		<g transform="matrix(1 0 0 1 170.78 37.34)" id="Rentalika_home_xA0_Imagen_00000141417532500584156720000013882359583392318628_"  >
<path style="stroke: none; stroke-width: 1; stroke-dasharray: none; stroke-linecap: butt; stroke-dashoffset: 0; stroke-linejoin: miter; stroke-miterlimit: 4; fill: rgb(252,251,253); fill-rule: nonzero; opacity: 1;"  transform=" translate(-810.71, -98.91)" d="M 812.82 98.51 c -0.1 1.32 -0.77 2.17 -2.1 2.32 c -1.22 0.14 -1.83 -0.72 -2.05 -1.73 c -0.34 -1.55 0.74 -2.03 2.01 -2.12 C 811.75 96.9 812.65 97.24 812.82 98.51 z" stroke-linecap="round" />
</g>
		<g transform="matrix(1 0 0 1 117.05 40.38)" id="Rentalika_home_xA0_Imagen_00000141417532500584156720000013882359583392318628_"  >
<path style="stroke: none; stroke-width: 1; stroke-dasharray: none; stroke-linecap: butt; stroke-dashoffset: 0; stroke-linejoin: miter; stroke-miterlimit: 4; fill: rgb(251,249,252); fill-rule: nonzero; opacity: 1;"  transform=" translate(-756.98, -101.95)" d="M 758.9 101.78 c 0.04 1.15 -0.43 1.96 -1.64 2.07 c -1.4 0.12 -2.23 -0.52 -2.2 -2 c 0.03 -1.2 0.71 -1.8 1.88 -1.82 C 758.11 100.01 758.83 100.55 758.9 101.78 z" stroke-linecap="round" />
</g>
		<g transform="matrix(1 0 0 1 161.57 41.41)" id="Rentalika_home_xA0_Imagen_00000141417532500584156720000013882359583392318628_"  >
<path style="stroke: none; stroke-width: 1; stroke-dasharray: none; stroke-linecap: butt; stroke-dashoffset: 0; stroke-linejoin: miter; stroke-miterlimit: 4; fill: rgb(250,249,252); fill-rule: nonzero; opacity: 1;"  transform=" translate(-801.5, -102.98)" d="M 801.71 104.89 c -1.32 -0.03 -2.33 -0.55 -2.34 -1.97 c -0.01 -1.13 0.85 -1.78 1.93 -1.84 c 1.31 -0.08 2.31 0.52 2.33 1.94 C 803.64 104.17 802.78 104.71 801.71 104.89 z" stroke-linecap="round" />
</g>
		<g transform="matrix(1 0 0 1 108.04 44.4)" id="Rentalika_home_xA0_Imagen_00000141417532500584156720000013882359583392318628_"  >
<path style="stroke: none; stroke-width: 1; stroke-dasharray: none; stroke-linecap: butt; stroke-dashoffset: 0; stroke-linejoin: miter; stroke-miterlimit: 4; fill: rgb(251,250,253); fill-rule: nonzero; opacity: 1;"  transform=" translate(-747.97, -105.97)" d="M 749.89 105.81 c 0.05 1.16 -0.42 1.95 -1.63 2.07 c -1.1 0.11 -2.02 -0.26 -2.18 -1.5 c -0.17 -1.34 0.33 -2.29 1.85 -2.33 C 749.1 104.03 749.81 104.59 749.89 105.81 z" stroke-linecap="round" />
</g>
		<g transform="matrix(1 0 0 1 175.01 46.38)" id="Rentalika_home_xA0_Imagen_00000141417532500584156720000013882359583392318628_"  >
<path style="stroke: none; stroke-width: 1; stroke-dasharray: none; stroke-linecap: butt; stroke-dashoffset: 0; stroke-linejoin: miter; stroke-miterlimit: 4; fill: rgb(251,249,253); fill-rule: nonzero; opacity: 1;"  transform=" translate(-814.94, -107.95)" d="M 815.14 106.03 c 1.22 0.11 1.77 0.83 1.72 2 c -0.07 1.51 -1.03 2 -2.37 1.81 c -1.24 -0.18 -1.57 -1.13 -1.45 -2.21 C 813.17 106.4 814 105.97 815.14 106.03 z" stroke-linecap="round" />
</g>
		<g transform="matrix(1 0 0 1 166.02 50.42)" id="Rentalika_home_xA0_Imagen_00000141417532500584156720000013882359583392318628_"  >
<path style="stroke: none; stroke-width: 1; stroke-dasharray: none; stroke-linecap: butt; stroke-dashoffset: 0; stroke-linejoin: miter; stroke-miterlimit: 4; fill: rgb(251,249,253); fill-rule: nonzero; opacity: 1;"  transform=" translate(-805.96, -111.99)" d="M 805.91 113.91 c -1.19 -0.04 -1.86 -0.63 -1.87 -1.84 c -0.02 -1.15 0.49 -1.93 1.71 -2 c 1.43 -0.08 2.18 0.64 2.12 2.09 C 807.82 113.4 807.07 113.9 805.91 113.91 z" stroke-linecap="round" />
</g>
		<g transform="matrix(1 0 0 1 103.06 57.86)" id="Rentalika_home_xA0_Imagen_00000141417532500584156720000013882359583392318628_"  >
<path style="stroke: none; stroke-width: 1; stroke-dasharray: none; stroke-linecap: butt; stroke-dashoffset: 0; stroke-linejoin: miter; stroke-miterlimit: 4; fill: rgb(250,249,252); fill-rule: nonzero; opacity: 1;"  transform=" translate(-742.99, -119.43)" d="M 744.9 119.64 c -0.19 1.08 -0.73 1.94 -1.88 1.92 c -1.4 -0.03 -2.02 -1.01 -1.93 -2.33 c 0.07 -1.09 0.71 -1.94 1.85 -1.93 C 744.36 117.31 744.87 118.33 744.9 119.64 z" stroke-linecap="round" />
</g>
		<g transform="matrix(1 0 0 1 125.51 58.37)" id="Rentalika_home_xA0_Imagen_00000141417532500584156720000013882359583392318628_"  >
<path style="stroke: none; stroke-width: 1; stroke-dasharray: none; stroke-linecap: butt; stroke-dashoffset: 0; stroke-linejoin: miter; stroke-miterlimit: 4; fill: rgb(251,249,252); fill-rule: nonzero; opacity: 1;"  transform=" translate(-765.44, -119.94)" d="M 765.66 118.03 c 1.08 0.19 1.94 0.74 1.91 1.89 c -0.03 1.41 -1.02 2.02 -2.34 1.93 c -1.09 -0.07 -1.94 -0.72 -1.92 -1.85 C 763.33 118.58 764.35 118.06 765.66 118.03 z" stroke-linecap="round" />
</g>
		<g transform="matrix(1 0 0 1 144.1 27.48)" id="Rentalika_home_xA0_Imagen_00000141417532500584156720000013882359583392318628_"  >
<path style="stroke: none; stroke-width: 1; stroke-dasharray: none; stroke-linecap: butt; stroke-dashoffset: 0; stroke-linejoin: miter; stroke-miterlimit: 4; fill: rgb(252,251,253); fill-rule: nonzero; opacity: 1;"  transform=" translate(-784.04, -89.05)" d="M 784.33 90.95 c -1.46 -0.06 -2.27 -0.5 -2.18 -1.75 c 0.1 -1.34 0.95 -2.1 2.26 -2.05 c 1.23 0.04 1.56 0.98 1.52 2.07 C 785.87 90.45 785.06 90.84 784.33 90.95 z" stroke-linecap="round" />
</g>
		<g transform="matrix(1 0 0 1 121.11 49.34)" id="Rentalika_home_xA0_Imagen_00000141417532500584156720000013882359583392318628_"  >
<path style="stroke: none; stroke-width: 1; stroke-dasharray: none; stroke-linecap: butt; stroke-dashoffset: 0; stroke-linejoin: miter; stroke-miterlimit: 4; fill: rgb(252,251,253); fill-rule: nonzero; opacity: 1;"  transform=" translate(-761.04, -110.91)" d="M 761.04 109.02 c 1.15 0.04 1.83 0.59 1.88 1.77 c 0.05 1.09 -0.32 2 -1.55 2.01 c -1.3 0.01 -2.14 -0.74 -2.21 -2.09 C 759.1 109.45 759.93 109.05 761.04 109.02 z" stroke-linecap="round" />
</g>
		<g transform="matrix(1 0 0 1 112.09 53.44)" id="Rentalika_home_xA0_Imagen_00000141417532500584156720000013882359583392318628_"  >
<path style="stroke: none; stroke-width: 1; stroke-dasharray: none; stroke-linecap: butt; stroke-dashoffset: 0; stroke-linejoin: miter; stroke-miterlimit: 4; fill: rgb(252,251,253); fill-rule: nonzero; opacity: 1;"  transform=" translate(-752.03, -115.01)" d="M 752.23 113.11 c 1.34 0.09 1.72 0.89 1.68 2 c -0.04 1.16 -0.69 1.78 -1.84 1.8 c -1.1 0.02 -1.96 -0.38 -1.93 -1.63 C 750.18 113.93 751.01 113.25 752.23 113.11 z" stroke-linecap="round" />
</g>
		<g transform="matrix(1 0 0 1 179.22 55.5)" id="Rentalika_home_xA0_Imagen_00000141417532500584156720000013882359583392318628_"  >
<path style="stroke: none; stroke-width: 1; stroke-dasharray: none; stroke-linecap: butt; stroke-dashoffset: 0; stroke-linejoin: miter; stroke-miterlimit: 4; fill: rgb(251,252,251); fill-rule: nonzero; opacity: 1;"  transform=" translate(-819.15, -117.07)" d="M 821.29 117.18 c -0.38 1.76 -1.77 1.92 -3.19 2.02 c -0.53 -1.36 -2.21 -2.91 0.11 -4 C 819.89 114.4 820.86 115.58 821.29 117.18 z" stroke-linecap="round" />
</g>
		<g transform="matrix(1 0 0 1 604.48 45.92)" id="Rentalika_home_xA0_Imagen_00000141417532500584156720000013882359583392318628_"  >
<path style="stroke: none; stroke-width: 1; stroke-dasharray: none; stroke-linecap: butt; stroke-dashoffset: 0; stroke-linejoin: miter; stroke-miterlimit: 4; fill: rgb(245,82,197); fill-rule: nonzero; opacity: 1;"  transform=" translate(-1244.41, -107.49)" d="M 1244.65 109.82 c -1.57 -0.02 -2.52 -0.87 -2.56 -2.35 c -0.04 -1.25 0.8 -2.19 2.1 -2.29 c 1.56 -0.13 2.5 0.82 2.55 2.31 C 1246.78 108.75 1245.92 109.54 1244.65 109.82 z" stroke-linecap="round" />
</g>
		<g transform="matrix(1 0 0 1 338.63 46.62)" id="Rentalika_home_xA0_Imagen_00000141417532500584156720000013882359583392318628_"  >
<path style="stroke: none; stroke-width: 1; stroke-dasharray: none; stroke-linecap: butt; stroke-dashoffset: 0; stroke-linejoin: miter; stroke-miterlimit: 4; fill: rgb(171,245,99); fill-rule: nonzero; opacity: 1;"  transform=" translate(-978.56, -108.19)" d="M 978.6 106.03 c 1.31 0.18 2.15 0.93 2.18 2.23 c 0.03 1.41 -1.06 2.1 -2.26 2.09 c -1.26 -0.01 -2.18 -0.96 -2.18 -2.23 C 976.34 106.81 977.26 106.1 978.6 106.03 z" stroke-linecap="round" />
</g>
		<g transform="matrix(1 0 0 1 348.63 46.66)" id="Rentalika_home_xA0_Imagen_00000141417532500584156720000013882359583392318628_"  >
<path style="stroke: none; stroke-width: 1; stroke-dasharray: none; stroke-linecap: butt; stroke-dashoffset: 0; stroke-linejoin: miter; stroke-miterlimit: 4; fill: rgb(171,245,99); fill-rule: nonzero; opacity: 1;"  transform=" translate(-988.56, -108.23)" d="M 988.61 110.4 c -1.32 -0.16 -2.2 -0.96 -2.27 -2.2 c -0.07 -1.31 0.85 -2.14 2.18 -2.14 c 1.32 0 2.17 0.81 2.26 2.12 C 990.87 109.62 989.8 110.11 988.61 110.4 z" stroke-linecap="round" />
</g>
		<g transform="matrix(1 0 0 1 358.63 46.62)" id="Rentalika_home_xA0_Imagen_00000141417532500584156720000013882359583392318628_"  >
<path style="stroke: none; stroke-width: 1; stroke-dasharray: none; stroke-linecap: butt; stroke-dashoffset: 0; stroke-linejoin: miter; stroke-miterlimit: 4; fill: rgb(171,245,99); fill-rule: nonzero; opacity: 1;"  transform=" translate(-998.56, -108.19)" d="M 998.6 106.03 c 1.31 0.18 2.15 0.93 2.18 2.23 c 0.03 1.41 -1.06 2.1 -2.26 2.09 c -1.26 -0.01 -2.18 -0.96 -2.18 -2.23 C 996.34 106.81 997.26 106.1 998.6 106.03 z" stroke-linecap="round" />
</g>
		<g transform="matrix(1 0 0 1 368.63 46.62)" id="Rentalika_home_xA0_Imagen_00000141417532500584156720000013882359583392318628_"  >
<path style="stroke: none; stroke-width: 1; stroke-dasharray: none; stroke-linecap: butt; stroke-dashoffset: 0; stroke-linejoin: miter; stroke-miterlimit: 4; fill: rgb(171,245,99); fill-rule: nonzero; opacity: 1;"  transform=" translate(-1008.56, -108.19)" d="M 1010.78 107.99 c 0.06 1.52 -0.84 2.22 -2.08 2.33 c -1.33 0.12 -2.2 -0.8 -2.34 -2.03 c -0.15 -1.33 0.73 -2.16 2.05 -2.23 C 1009.74 106 1010.51 106.8 1010.78 107.99 z" stroke-linecap="round" />
</g>
		<g transform="matrix(1 0 0 1 378.63 46.62)" id="Rentalika_home_xA0_Imagen_00000141417532500584156720000013882359583392318628_"  >
<path style="stroke: none; stroke-width: 1; stroke-dasharray: none; stroke-linecap: butt; stroke-dashoffset: 0; stroke-linejoin: miter; stroke-miterlimit: 4; fill: rgb(171,245,99); fill-rule: nonzero; opacity: 1;"  transform=" translate(-1018.56, -108.19)" d="M 1020.78 107.99 c 0.06 1.52 -0.84 2.22 -2.08 2.33 c -1.33 0.12 -2.2 -0.8 -2.34 -2.03 c -0.15 -1.33 0.73 -2.16 2.05 -2.23 C 1019.74 106 1020.5 106.8 1020.78 107.99 z" stroke-linecap="round" />
</g>
		<g transform="matrix(1 0 0 1 318.63 56.61)" id="Rentalika_home_xA0_Imagen_00000141417532500584156720000013882359583392318628_"  >
<path style="stroke: none; stroke-width: 1; stroke-dasharray: none; stroke-linecap: butt; stroke-dashoffset: 0; stroke-linejoin: miter; stroke-miterlimit: 4; fill: rgb(171,245,99); fill-rule: nonzero; opacity: 1;"  transform=" translate(-958.56, -118.18)" d="M 958.68 116.03 c 1.27 0.21 2.1 0.96 2.1 2.27 c -0.01 1.41 -1.09 2.07 -2.3 2.03 c -1.27 -0.04 -2.16 -0.99 -2.13 -2.27 C 956.38 116.74 957.32 116.08 958.68 116.03 z" stroke-linecap="round" />
</g>
		<g transform="matrix(1 0 0 1 328.63 56.66)" id="Rentalika_home_xA0_Imagen_00000141417532500584156720000013882359583392318628_"  >
<path style="stroke: none; stroke-width: 1; stroke-dasharray: none; stroke-linecap: butt; stroke-dashoffset: 0; stroke-linejoin: miter; stroke-miterlimit: 4; fill: rgb(171,245,99); fill-rule: nonzero; opacity: 1;"  transform=" translate(-968.57, -118.23)" d="M 968.44 120.39 c -1.25 -0.31 -2.14 -1.07 -2.08 -2.37 c 0.06 -1.33 1.02 -2.05 2.35 -1.95 c 1.32 0.11 2.11 0.98 2.07 2.29 C 970.74 119.77 969.66 120.22 968.44 120.39 z" stroke-linecap="round" />
</g>
		<g transform="matrix(1 0 0 1 338.62 56.6)" id="Rentalika_home_xA0_Imagen_00000141417532500584156720000013882359583392318628_"  >
<path style="stroke: none; stroke-width: 1; stroke-dasharray: none; stroke-linecap: butt; stroke-dashoffset: 0; stroke-linejoin: miter; stroke-miterlimit: 4; fill: rgb(171,245,99); fill-rule: nonzero; opacity: 1;"  transform=" translate(-978.56, -118.17)" d="M 978.29 116.01 c 1.5 0.12 2.37 0.8 2.48 2.12 c 0.12 1.43 -0.9 2.13 -2.12 2.2 c -1.32 0.08 -2.19 -0.86 -2.3 -2.1 C 976.23 116.89 977.22 116.25 978.29 116.01 z" stroke-linecap="round" />
</g>
		<g transform="matrix(1 0 0 1 348.63 56.62)" id="Rentalika_home_xA0_Imagen_00000141417532500584156720000013882359583392318628_"  >
<path style="stroke: none; stroke-width: 1; stroke-dasharray: none; stroke-linecap: butt; stroke-dashoffset: 0; stroke-linejoin: miter; stroke-miterlimit: 4; fill: rgb(171,245,99); fill-rule: nonzero; opacity: 1;"  transform=" translate(-988.57, -118.19)" d="M 990.79 118 c 0.05 1.52 -0.86 2.22 -2.09 2.32 c -1.33 0.11 -2.2 -0.81 -2.34 -2.04 c -0.14 -1.34 0.75 -2.15 2.07 -2.22 C 989.76 116 990.52 116.8 990.79 118 z" stroke-linecap="round" />
</g>
		<g transform="matrix(1 0 0 1 358.63 56.62)" id="Rentalika_home_xA0_Imagen_00000141417532500584156720000013882359583392318628_"  >
<path style="stroke: none; stroke-width: 1; stroke-dasharray: none; stroke-linecap: butt; stroke-dashoffset: 0; stroke-linejoin: miter; stroke-miterlimit: 4; fill: rgb(171,245,99); fill-rule: nonzero; opacity: 1;"  transform=" translate(-998.56, -118.19)" d="M 998.29 116.04 c 1.39 0.01 2.27 0.67 2.46 1.97 c 0.22 1.44 -0.75 2.15 -1.98 2.3 c -1.34 0.17 -2.21 -0.73 -2.4 -1.96 C 996.16 116.99 997.07 116.29 998.29 116.04 z" stroke-linecap="round" />
</g>
		<g transform="matrix(1 0 0 1 368.63 56.65)" id="Rentalika_home_xA0_Imagen_00000141417532500584156720000013882359583392318628_"  >
<path style="stroke: none; stroke-width: 1; stroke-dasharray: none; stroke-linecap: butt; stroke-dashoffset: 0; stroke-linejoin: miter; stroke-miterlimit: 4; fill: rgb(171,245,99); fill-rule: nonzero; opacity: 1;"  transform=" translate(-1008.56, -118.22)" d="M 1008.92 120.38 c -1.54 -0.06 -2.41 -0.83 -2.56 -2.07 c -0.16 -1.34 0.71 -2.17 2.03 -2.24 c 1.32 -0.08 2.18 0.68 2.37 1.99 C 1010.97 119.54 1009.84 119.98 1008.92 120.38 z" stroke-linecap="round" />
</g>
		<g transform="matrix(1 0 0 1 378.63 56.63)" id="Rentalika_home_xA0_Imagen_00000141417532500584156720000013882359583392318628_"  >
<path style="stroke: none; stroke-width: 1; stroke-dasharray: none; stroke-linecap: butt; stroke-dashoffset: 0; stroke-linejoin: miter; stroke-miterlimit: 4; fill: rgb(171,245,99); fill-rule: nonzero; opacity: 1;"  transform=" translate(-1018.56, -118.2)" d="M 1020.8 118.2 c -0.06 1.43 -1.02 2.11 -2.23 2.14 c -1.3 0.03 -2.19 -0.92 -2.24 -2.17 c -0.05 -1.32 0.88 -2.13 2.2 -2.12 C 1019.86 116.07 1020.59 116.91 1020.8 118.2 z" stroke-linecap="round" />
</g>
		<g transform="matrix(1 0 0 1 388.63 56.66)" id="Rentalika_home_xA0_Imagen_00000141417532500584156720000013882359583392318628_"  >
<path style="stroke: none; stroke-width: 1; stroke-dasharray: none; stroke-linecap: butt; stroke-dashoffset: 0; stroke-linejoin: miter; stroke-miterlimit: 4; fill: rgb(171,245,99); fill-rule: nonzero; opacity: 1;"  transform=" translate(-1028.56, -118.23)" d="M 1028.51 120.4 c -1.26 -0.26 -2.17 -1.01 -2.17 -2.29 c 0 -1.33 0.93 -2.1 2.26 -2.05 c 1.32 0.05 2.15 0.91 2.18 2.21 C 1030.81 119.68 1029.72 120.16 1028.51 120.4 z" stroke-linecap="round" />
</g>
		<g transform="matrix(1 0 0 1 398.62 56.62)" id="Rentalika_home_xA0_Imagen_00000141417532500584156720000013882359583392318628_"  >
<path style="stroke: none; stroke-width: 1; stroke-dasharray: none; stroke-linecap: butt; stroke-dashoffset: 0; stroke-linejoin: miter; stroke-miterlimit: 4; fill: rgb(171,245,99); fill-rule: nonzero; opacity: 1;"  transform=" translate(-1038.56, -118.19)" d="M 1040.78 118 c 0.05 1.52 -0.86 2.22 -2.09 2.32 c -1.33 0.11 -2.2 -0.81 -2.34 -2.04 c -0.14 -1.34 0.75 -2.15 2.07 -2.22 C 1039.75 116 1040.51 116.8 1040.78 118 z" stroke-linecap="round" />
</g>
		<g transform="matrix(1 0 0 1 408.62 56.62)" id="Rentalika_home_xA0_Imagen_00000141417532500584156720000013882359583392318628_"  >
<path style="stroke: none; stroke-width: 1; stroke-dasharray: none; stroke-linecap: butt; stroke-dashoffset: 0; stroke-linejoin: miter; stroke-miterlimit: 4; fill: rgb(171,245,99); fill-rule: nonzero; opacity: 1;"  transform=" translate(-1048.55, -118.19)" d="M 1048.21 116.05 c 1.42 -0.05 2.29 0.62 2.52 1.9 c 0.26 1.43 -0.68 2.16 -1.91 2.35 c -1.36 0.21 -2.2 -0.68 -2.44 -1.9 C 1046.11 117.04 1047.01 116.34 1048.21 116.05 z" stroke-linecap="round" />
</g>
		<g transform="matrix(1 0 0 1 595.46 50.16)" id="Rentalika_home_xA0_Imagen_00000141417532500584156720000013882359583392318628_"  >
<path style="stroke: none; stroke-width: 1; stroke-dasharray: none; stroke-linecap: butt; stroke-dashoffset: 0; stroke-linejoin: miter; stroke-miterlimit: 4; fill: rgb(247,75,195); fill-rule: nonzero; opacity: 1;"  transform=" translate(-1235.4, -111.73)" d="M 1235.91 113.9 c -1.64 -0.02 -2.62 -0.61 -2.71 -1.94 c -0.09 -1.3 0.78 -2.24 2 -2.38 c 1.29 -0.15 2.15 0.79 2.36 2.01 C 1237.82 113.03 1236.67 113.49 1235.91 113.9 z" stroke-linecap="round" />
</g>
		<g transform="matrix(1 0 0 1 617.92 50.81)" id="Rentalika_home_xA0_Imagen_00000141417532500584156720000013882359583392318628_"  >
<path style="stroke: none; stroke-width: 1; stroke-dasharray: none; stroke-linecap: butt; stroke-dashoffset: 0; stroke-linejoin: miter; stroke-miterlimit: 4; fill: rgb(250,66,192); fill-rule: nonzero; opacity: 1;"  transform=" translate(-1257.85, -112.38)" d="M 1259.86 112.33 c -0.17 1.35 -0.79 2.27 -2.17 2.19 c -1.07 -0.06 -1.77 -0.81 -1.84 -1.92 c -0.08 -1.3 0.5 -2.3 1.86 -2.37 C 1259.07 110.16 1259.7 111.11 1259.86 112.33 z" stroke-linecap="round" />
</g>
		<g transform="matrix(1 0 0 1 586.43 54.36)" id="Rentalika_home_xA0_Imagen_00000141417532500584156720000013882359583392318628_"  >
<path style="stroke: none; stroke-width: 1; stroke-dasharray: none; stroke-linecap: butt; stroke-dashoffset: 0; stroke-linejoin: miter; stroke-miterlimit: 4; fill: rgb(251,66,192); fill-rule: nonzero; opacity: 1;"  transform=" translate(-1226.36, -115.93)" d="M 1226.31 113.92 c 1.31 0.17 2.27 0.75 2.2 2.14 c -0.06 1.08 -0.79 1.76 -1.9 1.86 c -1.33 0.11 -2.29 -0.52 -2.39 -1.85 C 1224.11 114.72 1225.06 114.07 1226.31 113.92 z" stroke-linecap="round" />
</g>
		<g transform="matrix(1 0 0 1 608.88 54.96)" id="Rentalika_home_xA0_Imagen_00000141417532500584156720000013882359583392318628_"  >
<path style="stroke: none; stroke-width: 1; stroke-dasharray: none; stroke-linecap: butt; stroke-dashoffset: 0; stroke-linejoin: miter; stroke-miterlimit: 4; fill: rgb(250,67,192); fill-rule: nonzero; opacity: 1;"  transform=" translate(-1248.81, -116.53)" d="M 1248.73 118.71 c -1.36 -0.28 -1.99 -1.12 -1.9 -2.43 c 0.08 -1.1 0.76 -1.87 1.84 -1.92 c 1.36 -0.07 2.13 0.84 2.13 2.14 C 1250.8 117.79 1250.05 118.59 1248.73 118.71 z" stroke-linecap="round" />
</g>
		<g transform="matrix(1 0 0 1 308.58 57.08)" id="Rentalika_home_xA0_Imagen_00000141417532500584156720000013882359583392318628_"  >
<path style="stroke: none; stroke-width: 1; stroke-dasharray: none; stroke-linecap: butt; stroke-dashoffset: 0; stroke-linejoin: miter; stroke-miterlimit: 4; fill: rgb(172,244,102); fill-rule: nonzero; opacity: 1;"  transform=" translate(-948.52, -118.65)" d="M 946.24 117.96 c 0.57 -0.31 1.13 -0.62 1.7 -0.93 c 1.05 0.05 2.42 -0.55 2.8 1.06 c 0.28 1.16 -0.53 1.88 -1.51 2.13 C 947.38 120.71 946.59 119.56 946.24 117.96 z" stroke-linecap="round" />
</g>
		<g transform="matrix(1 0 0 1 328.99 47.02)" id="Rentalika_home_xA0_Imagen_00000141417532500584156720000013882359583392318628_"  >
<path style="stroke: none; stroke-width: 1; stroke-dasharray: none; stroke-linecap: butt; stroke-dashoffset: 0; stroke-linejoin: miter; stroke-miterlimit: 4; fill: rgb(171,245,99); fill-rule: nonzero; opacity: 1;"  transform=" translate(-968.92, -108.59)" d="M 966.97 108.06 c 0.95 -0.42 1.9 -0.84 2.85 -1.26 c 1.59 1.26 1.35 2.5 -0.32 3.27 C 967.65 110.92 966.85 109.95 966.97 108.06 z" stroke-linecap="round" />
</g>
		<g transform="matrix(1 0 0 1 -630.2 36.41)" id="Rentalika_home_xA0_Imagen_00000141417532500584156720000013882359583392318628_"  >
<path style="stroke: none; stroke-width: 1; stroke-dasharray: none; stroke-linecap: butt; stroke-dashoffset: 0; stroke-linejoin: miter; stroke-miterlimit: 4; fill: rgb(248,254,242); fill-rule: nonzero; opacity: 1;"  transform=" translate(-9.73, -97.98)" d="M 11.93 97.85 c -0.08 1.36 -0.85 2.08 -2.19 2.16 c -1.15 0.07 -1.98 -0.62 -2.16 -1.66 c -0.23 -1.32 0.49 -2.24 1.87 -2.39 C 10.81 95.81 11.63 96.49 11.93 97.85 z" stroke-linecap="round" />
</g>
		<g transform="matrix(1 0 0 1 -620.2 36.41)" id="Rentalika_home_xA0_Imagen_00000141417532500584156720000013882359583392318628_"  >
<path style="stroke: none; stroke-width: 1; stroke-dasharray: none; stroke-linecap: butt; stroke-dashoffset: 0; stroke-linejoin: miter; stroke-miterlimit: 4; fill: rgb(248,254,242); fill-rule: nonzero; opacity: 1;"  transform=" translate(-19.74, -97.98)" d="M 21.94 97.86 c -0.08 1.36 -0.86 2.07 -2.2 2.15 c -1.15 0.07 -1.98 -0.63 -2.16 -1.66 c -0.23 -1.31 0.5 -2.24 1.88 -2.39 C 20.81 95.81 21.64 96.49 21.94 97.86 z" stroke-linecap="round" />
</g>
		<g transform="matrix(1 0 0 1 -610.2 36.41)" id="Rentalika_home_xA0_Imagen_00000141417532500584156720000013882359583392318628_"  >
<path style="stroke: none; stroke-width: 1; stroke-dasharray: none; stroke-linecap: butt; stroke-dashoffset: 0; stroke-linejoin: miter; stroke-miterlimit: 4; fill: rgb(248,254,242); fill-rule: nonzero; opacity: 1;"  transform=" translate(-29.73, -97.98)" d="M 31.93 97.85 c -0.08 1.36 -0.85 2.08 -2.19 2.16 c -1.15 0.07 -1.97 -0.62 -2.16 -1.66 c -0.23 -1.32 0.49 -2.24 1.87 -2.39 C 30.81 95.81 31.63 96.49 31.93 97.85 z" stroke-linecap="round" />
</g>
		<g transform="matrix(1 0 0 1 -600.22 36.39)" id="Rentalika_home_xA0_Imagen_00000141417532500584156720000013882359583392318628_"  >
<path style="stroke: none; stroke-width: 1; stroke-dasharray: none; stroke-linecap: butt; stroke-dashoffset: 0; stroke-linejoin: miter; stroke-miterlimit: 4; fill: rgb(248,254,242); fill-rule: nonzero; opacity: 1;"  transform=" translate(-39.71, -97.96)" d="M 39.73 95.91 c 1.31 0.16 2.26 0.79 2.14 2.2 c -0.11 1.36 -1.07 1.99 -2.42 1.88 c -1.14 -0.09 -1.86 -0.83 -1.9 -1.91 C 37.5 96.7 38.39 96.02 39.73 95.91 z" stroke-linecap="round" />
</g>
		<g transform="matrix(1 0 0 1 -590.21 36.38)" id="Rentalika_home_xA0_Imagen_00000141417532500584156720000013882359583392318628_"  >
<path style="stroke: none; stroke-width: 1; stroke-dasharray: none; stroke-linecap: butt; stroke-dashoffset: 0; stroke-linejoin: miter; stroke-miterlimit: 4; fill: rgb(248,254,242); fill-rule: nonzero; opacity: 1;"  transform=" translate(-49.72, -97.95)" d="M 49.75 95.91 c 1.3 0.16 2.25 0.8 2.13 2.2 c -0.12 1.36 -1.08 1.99 -2.43 1.87 c -1.14 -0.1 -1.87 -0.84 -1.89 -1.92 C 47.53 96.73 48.36 95.98 49.75 95.91 z" stroke-linecap="round" />
</g>
		<g transform="matrix(1 0 0 1 -630.17 46.38)" id="Rentalika_home_xA0_Imagen_00000141417532500584156720000013882359583392318628_"  >
<path style="stroke: none; stroke-width: 1; stroke-dasharray: none; stroke-linecap: butt; stroke-dashoffset: 0; stroke-linejoin: miter; stroke-miterlimit: 4; fill: rgb(248,254,242); fill-rule: nonzero; opacity: 1;"  transform=" translate(-9.76, -107.95)" d="M 11.98 107.77 c -0.3 1.64 -1.13 2.33 -2.47 2.21 c -1.38 -0.12 -2.13 -1.03 -1.94 -2.35 c 0.15 -1.04 0.97 -1.74 2.12 -1.72 C 11.07 105.94 11.7 106.79 11.98 107.77 z" stroke-linecap="round" />
</g>
		<g transform="matrix(1 0 0 1 -620.22 46.4)" id="Rentalika_home_xA0_Imagen_00000141417532500584156720000013882359583392318628_"  >
<path style="stroke: none; stroke-width: 1; stroke-dasharray: none; stroke-linecap: butt; stroke-dashoffset: 0; stroke-linejoin: miter; stroke-miterlimit: 4; fill: rgb(248,254,242); fill-rule: nonzero; opacity: 1;"  transform=" translate(-19.71, -107.97)" d="M 19.46 105.93 c 1.38 -0.01 2.34 0.56 2.42 1.94 c 0.08 1.41 -0.87 2.08 -2.19 2.14 c -1.15 0.05 -1.97 -0.67 -2.12 -1.7 C 17.37 106.98 18.15 106.15 19.46 105.93 z" stroke-linecap="round" />
</g>
		<g transform="matrix(1 0 0 1 -610.23 46.4)" id="Rentalika_home_xA0_Imagen_00000141417532500584156720000013882359583392318628_"  >
<path style="stroke: none; stroke-width: 1; stroke-dasharray: none; stroke-linecap: butt; stroke-dashoffset: 0; stroke-linejoin: miter; stroke-miterlimit: 4; fill: rgb(248,254,242); fill-rule: nonzero; opacity: 1;"  transform=" translate(-29.71, -107.97)" d="M 29.44 105.93 c 1.39 -0.02 2.35 0.55 2.44 1.93 c 0.09 1.41 -0.86 2.08 -2.18 2.15 c -1.15 0.06 -1.97 -0.66 -2.14 -1.69 C 27.36 107 28.13 106.15 29.44 105.93 z" stroke-linecap="round" />
</g>
		<g transform="matrix(1 0 0 1 -600.21 46.42)" id="Rentalika_home_xA0_Imagen_00000141417532500584156720000013882359583392318628_"  >
<path style="stroke: none; stroke-width: 1; stroke-dasharray: none; stroke-linecap: butt; stroke-dashoffset: 0; stroke-linejoin: miter; stroke-miterlimit: 4; fill: rgb(248,254,242); fill-rule: nonzero; opacity: 1;"  transform=" translate(-39.73, -107.99)" d="M 39.7 110.03 c -1.33 -0.14 -2.22 -0.83 -2.13 -2.21 c 0.07 -1.08 0.8 -1.8 1.94 -1.87 c 1.34 -0.08 2.3 0.55 2.38 1.92 C 41.97 109.28 41 109.89 39.7 110.03 z" stroke-linecap="round" />
</g>
		<g transform="matrix(1 0 0 1 -590.25 46.47)" id="Rentalika_home_xA0_Imagen_00000141417532500584156720000013882359583392318628_"  >
<path style="stroke: none; stroke-width: 1; stroke-dasharray: none; stroke-linecap: butt; stroke-dashoffset: 0; stroke-linejoin: miter; stroke-miterlimit: 4; fill: rgb(248,253,244); fill-rule: nonzero; opacity: 1;"  transform=" translate(-49.69, -108.04)" d="M 51.22 106.09 c 1.16 1.84 0.68 3.2 -1.24 4.11 c -1.58 -0.28 -2.86 -1.02 -2.32 -2.8 C 48.18 105.66 49.73 105.73 51.22 106.09 z" stroke-linecap="round" />
</g>
		<g transform="matrix(1 0 0 1 -630.19 56.38)" id="Rentalika_home_xA0_Imagen_00000141417532500584156720000013882359583392318628_"  >
<path style="stroke: none; stroke-width: 1; stroke-dasharray: none; stroke-linecap: butt; stroke-dashoffset: 0; stroke-linejoin: miter; stroke-miterlimit: 4; fill: rgb(248,254,242); fill-rule: nonzero; opacity: 1;"  transform=" translate(-9.74, -117.95)" d="M 10.03 119.99 c -1.47 0.06 -2.36 -0.6 -2.46 -1.95 c -0.09 -1.1 0.59 -1.86 1.71 -2.07 c 1.35 -0.25 2.37 0.36 2.6 1.66 C 12.12 118.98 11.27 119.77 10.03 119.99 z" stroke-linecap="round" />
</g>
		<g transform="matrix(1 0 0 1 -620.19 56.38)" id="Rentalika_home_xA0_Imagen_00000141417532500584156720000013882359583392318628_"  >
<path style="stroke: none; stroke-width: 1; stroke-dasharray: none; stroke-linecap: butt; stroke-dashoffset: 0; stroke-linejoin: miter; stroke-miterlimit: 4; fill: rgb(248,254,242); fill-rule: nonzero; opacity: 1;"  transform=" translate(-19.74, -117.95)" d="M 21.94 118.03 c -0.26 1.38 -1.08 2.07 -2.43 1.95 c -1.38 -0.12 -2.13 -1.04 -1.93 -2.36 c 0.15 -1.04 0.97 -1.75 2.12 -1.71 C 21.03 115.97 21.83 116.67 21.94 118.03 z" stroke-linecap="round" />
</g>
		<g transform="matrix(1 0 0 1 -610.2 56.38)" id="Rentalika_home_xA0_Imagen_00000141417532500584156720000013882359583392318628_"  >
<path style="stroke: none; stroke-width: 1; stroke-dasharray: none; stroke-linecap: butt; stroke-dashoffset: 0; stroke-linejoin: miter; stroke-miterlimit: 4; fill: rgb(248,254,242); fill-rule: nonzero; opacity: 1;"  transform=" translate(-29.73, -117.95)" d="M 30.02 119.99 c -1.47 0.06 -2.36 -0.6 -2.46 -1.95 c -0.09 -1.1 0.59 -1.86 1.71 -2.07 c 1.35 -0.25 2.37 0.36 2.6 1.66 C 32.11 118.97 31.27 119.77 30.02 119.99 z" stroke-linecap="round" />
</g>
		<g transform="matrix(1 0 0 1 -600.23 56.39)" id="Rentalika_home_xA0_Imagen_00000141417532500584156720000013882359583392318628_"  >
<path style="stroke: none; stroke-width: 1; stroke-dasharray: none; stroke-linecap: butt; stroke-dashoffset: 0; stroke-linejoin: miter; stroke-miterlimit: 4; fill: rgb(248,254,242); fill-rule: nonzero; opacity: 1;"  transform=" translate(-39.7, -117.96)" d="M 39.45 115.92 c 1.38 -0.01 2.34 0.56 2.42 1.94 c 0.08 1.41 -0.87 2.08 -2.19 2.14 c -1.15 0.05 -1.97 -0.67 -2.12 -1.7 C 37.36 116.98 38.14 116.15 39.45 115.92 z" stroke-linecap="round" />
</g>
		<g transform="matrix(1 0 0 1 -590.57 56.37)" id="Rentalika_home_xA0_Imagen_00000141417532500584156720000013882359583392318628_"  >
<path style="stroke: none; stroke-width: 1; stroke-dasharray: none; stroke-linecap: butt; stroke-dashoffset: 0; stroke-linejoin: miter; stroke-miterlimit: 4; fill: rgb(251,249,252); fill-rule: nonzero; opacity: 1;"  transform=" translate(-49.37, -117.94)" d="M 48.17 115.98 c 1.51 -0.05 3.12 -0.15 3.58 1.75 c 0.12 0.48 -0.31 1.32 -0.75 1.67 c -1.51 1.19 -2.77 0.07 -4.04 -0.65 C 47.36 117.82 47.76 116.9 48.17 115.98 z" stroke-linecap="round" />
</g>
		<g transform="matrix(1 0 0 1 -127.53 56.08)" id="Rentalika_home_xA0_Imagen_00000141417532500584156720000013882359583392318628_"  >
<path style="stroke: none; stroke-width: 1; stroke-dasharray: none; stroke-linecap: butt; stroke-dashoffset: 0; stroke-linejoin: miter; stroke-miterlimit: 4; fill: rgb(176,237,119); fill-rule: nonzero; opacity: 1;"  transform=" translate(-512.4, -117.65)" d="M 512.38 119.91 c -1.28 -0.19 -2.16 -0.9 -2.23 -2.2 c -0.07 -1.3 0.62 -2.32 1.97 -2.32 c 1.48 -0.01 2.49 0.98 2.54 2.45 C 514.69 119.18 513.67 119.8 512.38 119.91 z" stroke-linecap="round" />
</g>
		<g transform="matrix(1 0 0 1 -131.85 46.96)" id="Rentalika_home_xA0_Imagen_00000141417532500584156720000013882359583392318628_"  >
<path style="stroke: none; stroke-width: 1; stroke-dasharray: none; stroke-linecap: butt; stroke-dashoffset: 0; stroke-linejoin: miter; stroke-miterlimit: 4; fill: rgb(172,244,102); fill-rule: nonzero; opacity: 1;"  transform=" translate(-508.08, -108.53)" d="M 508.2 106.35 c 1.33 0.32 2.03 1.11 1.87 2.46 c -0.12 1.08 -0.76 1.87 -1.88 1.9 c -1.39 0.03 -2.11 -0.89 -2.12 -2.18 C 506.07 107.2 506.88 106.45 508.2 106.35 z" stroke-linecap="round" />
</g>
		<g transform="matrix(1 0 0 1 -149.89 55.42)" id="Rentalika_home_xA0_Imagen_00000141417532500584156720000013882359583392318628_"  >
<path style="stroke: none; stroke-width: 1; stroke-dasharray: none; stroke-linecap: butt; stroke-dashoffset: 0; stroke-linejoin: miter; stroke-miterlimit: 4; fill: rgb(171,245,99); fill-rule: nonzero; opacity: 1;"  transform=" translate(-490.05, -116.99)" d="M 492.04 116.78 c 0.06 1.13 -0.35 1.99 -1.53 2.16 c -1.29 0.19 -2.34 -0.24 -2.45 -1.73 c -0.1 -1.37 0.58 -2.21 2.02 -2.21 C 491.24 115 491.91 115.61 492.04 116.78 z" stroke-linecap="round" />
</g>
		<g transform="matrix(1 0 0 1 -140.86 51.29)" id="Rentalika_home_xA0_Imagen_00000141417532500584156720000013882359583392318628_"  >
<path style="stroke: none; stroke-width: 1; stroke-dasharray: none; stroke-linecap: butt; stroke-dashoffset: 0; stroke-linejoin: miter; stroke-miterlimit: 4; fill: rgb(170,246,96); fill-rule: nonzero; opacity: 1;"  transform=" translate(-499.08, -112.86)" d="M 498.8 110.88 c 1.74 0.09 2.38 0.88 2.24 2.25 c -0.11 1.12 -0.76 1.81 -1.94 1.71 c -1.36 -0.11 -2.04 -0.96 -2 -2.29 C 497.14 111.32 498.09 111.03 498.8 110.88 z" stroke-linecap="round" />
</g>
		<g transform="matrix(1 0 0 1 -580.3 36.38)" id="Rentalika_home_xA0_Imagen_00000141417532500584156720000013882359583392318628_"  >
<path style="stroke: none; stroke-width: 1; stroke-dasharray: none; stroke-linecap: butt; stroke-dashoffset: 0; stroke-linejoin: miter; stroke-miterlimit: 4; fill: rgb(251,249,253); fill-rule: nonzero; opacity: 1;"  transform=" translate(-59.64, -97.95)" d="M 59.54 96.03 c 1.28 0.12 2.32 0.63 2.23 2.08 c -0.07 1.13 -0.95 1.74 -2.03 1.75 c -1.3 0.01 -2.31 -0.61 -2.24 -2.05 C 57.56 96.69 58.45 96.17 59.54 96.03 z" stroke-linecap="round" />
</g>
		<g transform="matrix(1 0 0 1 -580.28 46.4)" id="Rentalika_home_xA0_Imagen_00000141417532500584156720000013882359583392318628_"  >
<path style="stroke: none; stroke-width: 1; stroke-dasharray: none; stroke-linecap: butt; stroke-dashoffset: 0; stroke-linejoin: miter; stroke-miterlimit: 4; fill: rgb(251,249,253); fill-rule: nonzero; opacity: 1;"  transform=" translate(-59.66, -107.97)" d="M 61.82 107.91 c -0.12 1.17 -0.8 1.82 -1.9 1.94 c -1.33 0.14 -2.33 -0.45 -2.42 -1.84 c -0.07 -1.14 0.76 -1.8 1.85 -1.92 C 60.69 105.93 61.55 106.57 61.82 107.91 z" stroke-linecap="round" />
</g>
		<g transform="matrix(1 0 0 1 -570.3 46.41)" id="Rentalika_home_xA0_Imagen_00000141417532500584156720000013882359583392318628_"  >
<path style="stroke: none; stroke-width: 1; stroke-dasharray: none; stroke-linecap: butt; stroke-dashoffset: 0; stroke-linejoin: miter; stroke-miterlimit: 4; fill: rgb(251,249,253); fill-rule: nonzero; opacity: 1;"  transform=" translate(-69.64, -107.98)" d="M 69.85 109.89 c -1.32 -0.03 -2.33 -0.55 -2.34 -1.97 c -0.01 -1.13 0.84 -1.78 1.93 -1.84 c 1.31 -0.08 2.31 0.52 2.33 1.94 C 71.78 109.16 70.92 109.7 69.85 109.89 z" stroke-linecap="round" />
</g>
		<g transform="matrix(1 0 0 1 -560.26 46.38)" id="Rentalika_home_xA0_Imagen_00000141417532500584156720000013882359583392318628_"  >
<path style="stroke: none; stroke-width: 1; stroke-dasharray: none; stroke-linecap: butt; stroke-dashoffset: 0; stroke-linejoin: miter; stroke-miterlimit: 4; fill: rgb(251,249,253); fill-rule: nonzero; opacity: 1;"  transform=" translate(-79.68, -107.95)" d="M 81.86 107.74 c -0.31 1.61 -1.17 2.24 -2.5 2.1 c -1.09 -0.11 -1.92 -0.77 -1.86 -1.91 c 0.07 -1.39 1.06 -1.97 2.4 -1.87 C 81.04 106.17 81.55 106.97 81.86 107.74 z" stroke-linecap="round" />
</g>
		<g transform="matrix(1 0 0 1 -550.29 46.41)" id="Rentalika_home_xA0_Imagen_00000141417532500584156720000013882359583392318628_"  >
<path style="stroke: none; stroke-width: 1; stroke-dasharray: none; stroke-linecap: butt; stroke-dashoffset: 0; stroke-linejoin: miter; stroke-miterlimit: 4; fill: rgb(251,249,253); fill-rule: nonzero; opacity: 1;"  transform=" translate(-89.64, -107.98)" d="M 89.79 109.89 c -1.3 -0.07 -2.32 -0.59 -2.28 -2.02 c 0.02 -1.13 0.89 -1.77 1.98 -1.8 c 1.3 -0.05 2.31 0.56 2.29 1.98 C 91.75 109.21 90.87 109.72 89.79 109.89 z" stroke-linecap="round" />
</g>
		<g transform="matrix(1 0 0 1 -540.31 46.38)" id="Rentalika_home_xA0_Imagen_00000141417532500584156720000013882359583392318628_"  >
<path style="stroke: none; stroke-width: 1; stroke-dasharray: none; stroke-linecap: butt; stroke-dashoffset: 0; stroke-linejoin: miter; stroke-miterlimit: 4; fill: rgb(251,249,253); fill-rule: nonzero; opacity: 1;"  transform=" translate(-99.63, -107.95)" d="M 99.53 106.03 c 1.28 0.12 2.32 0.63 2.23 2.08 c -0.07 1.13 -0.95 1.74 -2.03 1.75 c -1.3 0.01 -2.31 -0.61 -2.24 -2.04 C 97.55 106.69 98.44 106.17 99.53 106.03 z" stroke-linecap="round" />
</g>
		<g transform="matrix(1 0 0 1 -530.3 46.4)" id="Rentalika_home_xA0_Imagen_00000141417532500584156720000013882359583392318628_"  >
<path style="stroke: none; stroke-width: 1; stroke-dasharray: none; stroke-linecap: butt; stroke-dashoffset: 0; stroke-linejoin: miter; stroke-miterlimit: 4; fill: rgb(251,249,253); fill-rule: nonzero; opacity: 1;"  transform=" translate(-109.63, -107.97)" d="M 109.57 109.9 c -1.09 -0.12 -1.99 -0.64 -2.07 -1.76 c -0.11 -1.43 0.89 -2.08 2.19 -2.09 c 1.08 -0.01 1.98 0.61 2.07 1.72 C 111.88 109.22 110.85 109.76 109.57 109.9 z" stroke-linecap="round" />
</g>
		<g transform="matrix(1 0 0 1 -520.31 46.38)" id="Rentalika_home_xA0_Imagen_00000141417532500584156720000013882359583392318628_"  >
<path style="stroke: none; stroke-width: 1; stroke-dasharray: none; stroke-linecap: butt; stroke-dashoffset: 0; stroke-linejoin: miter; stroke-miterlimit: 4; fill: rgb(251,249,253); fill-rule: nonzero; opacity: 1;"  transform=" translate(-119.62, -107.95)" d="M 119.58 106.02 c 1.28 0.16 2.3 0.7 2.17 2.14 c -0.1 1.11 -1 1.72 -2.08 1.71 c -1.3 -0.02 -2.3 -0.68 -2.18 -2.11 C 117.58 106.66 118.48 106.14 119.58 106.02 z" stroke-linecap="round" />
</g>
		<g transform="matrix(1 0 0 1 -580.29 56.39)" id="Rentalika_home_xA0_Imagen_00000141417532500584156720000013882359583392318628_"  >
<path style="stroke: none; stroke-width: 1; stroke-dasharray: none; stroke-linecap: butt; stroke-dashoffset: 0; stroke-linejoin: miter; stroke-miterlimit: 4; fill: rgb(251,249,253); fill-rule: nonzero; opacity: 1;"  transform=" translate(-59.64, -117.96)" d="M 61.81 118.19 c -0.44 1.28 -1.32 1.9 -2.65 1.62 c -1.07 -0.22 -1.86 -0.96 -1.65 -2.08 c 0.25 -1.31 1.27 -1.9 2.6 -1.63 C 61.19 116.33 61.83 117.03 61.81 118.19 z" stroke-linecap="round" />
</g>
		<g transform="matrix(1 0 0 1 -570.29 56.41)" id="Rentalika_home_xA0_Imagen_00000141417532500584156720000013882359583392318628_"  >
<path style="stroke: none; stroke-width: 1; stroke-dasharray: none; stroke-linecap: butt; stroke-dashoffset: 0; stroke-linejoin: miter; stroke-miterlimit: 4; fill: rgb(251,249,253); fill-rule: nonzero; opacity: 1;"  transform=" translate(-69.64, -117.98)" d="M 69.56 119.9 c -1.11 -0.15 -2 -0.67 -2.05 -1.8 c -0.07 -1.44 0.94 -2.05 2.24 -2.03 c 1.08 0.02 1.97 0.64 2.02 1.76 C 71.85 119.27 70.81 119.78 69.56 119.9 z" stroke-linecap="round" />
</g>
		<g transform="matrix(1 0 0 1 -560.26 56.4)" id="Rentalika_home_xA0_Imagen_00000141417532500584156720000013882359583392318628_"  >
<path style="stroke: none; stroke-width: 1; stroke-dasharray: none; stroke-linecap: butt; stroke-dashoffset: 0; stroke-linejoin: miter; stroke-miterlimit: 4; fill: rgb(251,249,253); fill-rule: nonzero; opacity: 1;"  transform=" translate(-79.68, -117.97)" d="M 81.88 117.99 c -0.51 1.48 -1.39 2.1 -2.72 1.83 c -1.07 -0.22 -1.86 -0.96 -1.65 -2.08 c 0.25 -1.31 1.27 -1.88 2.6 -1.63 C 81.23 116.32 81.69 117.13 81.88 117.99 z" stroke-linecap="round" />
</g>
		<g transform="matrix(1 0 0 1 -550.28 56.4)" id="Rentalika_home_xA0_Imagen_00000141417532500584156720000013882359583392318628_"  >
<path style="stroke: none; stroke-width: 1; stroke-dasharray: none; stroke-linecap: butt; stroke-dashoffset: 0; stroke-linejoin: miter; stroke-miterlimit: 4; fill: rgb(251,249,253); fill-rule: nonzero; opacity: 1;"  transform=" translate(-89.65, -117.97)" d="M 91.82 118.14 c -0.4 1.31 -1.28 1.93 -2.61 1.69 c -1.08 -0.19 -1.88 -0.9 -1.7 -2.04 c 0.21 -1.33 1.23 -1.92 2.55 -1.68 C 91.14 116.29 91.8 116.98 91.82 118.14 z" stroke-linecap="round" />
</g>
		<g transform="matrix(1 0 0 1 -540.28 56.39)" id="Rentalika_home_xA0_Imagen_00000141417532500584156720000013882359583392318628_"  >
<path style="stroke: none; stroke-width: 1; stroke-dasharray: none; stroke-linecap: butt; stroke-dashoffset: 0; stroke-linejoin: miter; stroke-miterlimit: 4; fill: rgb(251,249,253); fill-rule: nonzero; opacity: 1;"  transform=" translate(-99.65, -117.96)" d="M 101.82 118.09 c -0.36 1.34 -1.24 1.95 -2.57 1.74 c -1.07 -0.17 -1.9 -0.85 -1.75 -2 c 0.18 -1.36 1.19 -1.94 2.52 -1.73 C 101.1 116.27 101.78 116.93 101.82 118.09 z" stroke-linecap="round" />
</g>
		<g transform="matrix(1 0 0 1 -530.31 56.37)" id="Rentalika_home_xA0_Imagen_00000141417532500584156720000013882359583392318628_"  >
<path style="stroke: none; stroke-width: 1; stroke-dasharray: none; stroke-linecap: butt; stroke-dashoffset: 0; stroke-linejoin: miter; stroke-miterlimit: 4; fill: rgb(251,249,253); fill-rule: nonzero; opacity: 1;"  transform=" translate(-109.62, -117.94)" d="M 109.64 116.02 c 1.09 0.09 2 0.6 2.11 1.71 c 0.15 1.43 -0.85 2.14 -2.14 2.14 c -1.29 0 -2.28 -0.74 -2.11 -2.16 C 107.63 116.62 108.53 116.09 109.64 116.02 z" stroke-linecap="round" />
</g>
		<g transform="matrix(1 0 0 1 -520.3 56.41)" id="Rentalika_home_xA0_Imagen_00000141417532500584156720000013882359583392318628_"  >
<path style="stroke: none; stroke-width: 1; stroke-dasharray: none; stroke-linecap: butt; stroke-dashoffset: 0; stroke-linejoin: miter; stroke-miterlimit: 4; fill: rgb(251,249,253); fill-rule: nonzero; opacity: 1;"  transform=" translate(-119.63, -117.98)" d="M 119.78 119.89 c -1.3 -0.07 -2.32 -0.59 -2.28 -2.02 c 0.02 -1.13 0.89 -1.77 1.98 -1.8 c 1.3 -0.05 2.31 0.56 2.29 1.98 C 121.75 119.2 120.86 119.72 119.78 119.89 z" stroke-linecap="round" />
</g>
		<g transform="matrix(1 0 0 1 -377.52 28.67)" id="Rentalika_home_xA0_Imagen_00000141417532500584156720000013882359583392318628_"  >
<path style="stroke: none; stroke-width: 1; stroke-dasharray: none; stroke-linecap: butt; stroke-dashoffset: 0; stroke-linejoin: miter; stroke-miterlimit: 4; fill: rgb(254,253,254); fill-rule: nonzero; opacity: 1;"  transform=" translate(-262.41, -90.24)" d="M 255.24 101.14 c -6.15 -0.84 -12.3 -1.68 -19.67 -2.69 c 7.79 -3.66 14.59 -6.87 21.4 -10.07 c 5.09 -2.39 10.18 -4.79 15.29 -7.15 c 7.34 -3.38 11.79 -2.32 16.99 3.98 C 278.15 91.04 266.81 96.34 255.24 101.14 z" stroke-linecap="round" />
</g>
		<g transform="matrix(1 0 0 1 289.84 24.06)" id="Rentalika_home_xA0_Imagen_00000141417532500584156720000013882359583392318628_"  >
<path style="stroke: none; stroke-width: 1; stroke-dasharray: none; stroke-linecap: butt; stroke-dashoffset: 0; stroke-linejoin: miter; stroke-miterlimit: 4; fill: rgb(254,254,254); fill-rule: nonzero; opacity: 1;"  transform=" translate(-929.77, -85.63)" d="M 889.98 99.83 c -0.03 -0.24 -0.04 -0.49 -0.05 -0.74 c 20.88 -9.8 41.72 -19.69 62.66 -29.36 c 7.53 -3.48 13.66 -0.57 17.02 7.53 c -9.67 5.03 -19.54 9.64 -29.59 13.87 c -4.14 1.81 -8.62 2.23 -12.97 3.19 c -6.35 1.41 -12.44 3.5 -18.16 6.62 c -1.88 1.03 -3.77 2.14 -6.05 2.02 C 898.56 101.92 894.27 100.87 889.98 99.83 z" stroke-linecap="round" />
</g>
		<g transform="matrix(1 0 0 1 281.5 37.48)" id="Rentalika_home_xA0_Imagen_00000141417532500584156720000013882359583392318628_"  >
<path style="stroke: none; stroke-width: 1; stroke-dasharray: none; stroke-linecap: butt; stroke-dashoffset: 0; stroke-linejoin: miter; stroke-miterlimit: 4; fill: rgb(209,188,233); fill-rule: nonzero; opacity: 1;"  transform=" translate(-921.44, -99.05)" d="M 902.84 102.96 c 9.59 -6.11 19.92 -10.12 31.35 -11.05 c 1.96 -0.16 3.89 -0.52 5.84 -0.78 c -8.75 4.18 -17.53 8.31 -26.24 12.57 c -1.47 0.72 -3.79 0.71 -3.73 3.27 C 907.66 105.63 905.25 104.3 902.84 102.96 z" stroke-linecap="round" />
</g>
		<g transform="matrix(1 0 0 1 39.65 14.83)" id="Rentalika_home_xA0_Imagen_00000141417532500584156720000013882359583392318628_"  >
<path style="stroke: none; stroke-width: 1; stroke-dasharray: none; stroke-linecap: butt; stroke-dashoffset: 0; stroke-linejoin: miter; stroke-miterlimit: 4; fill: rgb(252,251,253); fill-rule: nonzero; opacity: 1;"  transform=" translate(-679.59, -76.4)" d="M 663.04 81.05 c 5.82 -2.74 11.59 -5.57 17.47 -8.19 c 6.66 -2.97 10.85 -1.83 15.62 3.96 c -5.94 2.86 -12.49 2.18 -18.75 2.98 C 672.65 80.4 667.96 82.45 663.04 81.05 z" stroke-linecap="round" />
</g>
		<g transform="matrix(1 0 0 1 -105.17 56.65)" id="Rentalika_home_xA0_Imagen_00000141417532500584156720000013882359583392318628_"  >
<path style="stroke: none; stroke-width: 1; stroke-dasharray: none; stroke-linecap: butt; stroke-dashoffset: 0; stroke-linejoin: miter; stroke-miterlimit: 4; fill: rgb(178,250,108); fill-rule: nonzero; opacity: 1;"  transform=" translate(-534.77, -118.22)" d="M 536.92 117.71 c 0.08 1.82 -0.78 2.54 -2.03 2.67 c -1.34 0.13 -2.24 -0.7 -2.28 -2 c -0.04 -1.22 0.59 -2.25 2 -2.32 C 535.98 115.99 536.58 116.94 536.92 117.71 z" stroke-linecap="round" />
</g>
		<g transform="matrix(1 0 0 1 -87 48.32)" id="Rentalika_home_xA0_Imagen_00000141417532500584156720000013882359583392318628_"  >
<path style="stroke: none; stroke-width: 1; stroke-dasharray: none; stroke-linecap: butt; stroke-dashoffset: 0; stroke-linejoin: miter; stroke-miterlimit: 4; fill: rgb(172,249,97); fill-rule: nonzero; opacity: 1;"  transform=" translate(-552.94, -109.89)" d="M 553.13 111.91 c -1.6 -0.1 -2.15 -0.84 -2.19 -1.96 c -0.05 -1.43 0.71 -2.16 2.13 -2.07 c 1.11 0.07 1.86 0.64 1.87 1.85 C 554.93 111.17 553.98 111.69 553.13 111.91 z" stroke-linecap="round" />
</g>
		<g transform="matrix(1 0 0 1 -96.03 52.44)" id="Rentalika_home_xA0_Imagen_00000141417532500584156720000013882359583392318628_"  >
<path style="stroke: none; stroke-width: 1; stroke-dasharray: none; stroke-linecap: butt; stroke-dashoffset: 0; stroke-linejoin: miter; stroke-miterlimit: 4; fill: rgb(172,249,98); fill-rule: nonzero; opacity: 1;"  transform=" translate(-543.9, -114.01)" d="M 543.72 116.02 c -1.49 -0.14 -1.98 -1.1 -1.8 -2.41 c 0.15 -1.13 0.91 -1.75 2.09 -1.59 c 1.39 0.18 2.05 1.11 1.89 2.42 C 545.74 115.6 544.84 116.05 543.72 116.02 z" stroke-linecap="round" />
</g>
</g>
</g>
</svg>