<?xml version="1.0" encoding="UTF-8" standalone="no" ?>
<!DOCTYPE svg PUBLIC "-//W3C//DTD SVG 1.1//EN" "http://www.w3.org/Graphics/SVG/1.1/DTD/svg11.dtd">
<svg xmlns="http://www.w3.org/2000/svg" xmlns:xlink="http://www.w3.org/1999/xlink" version="1.1" width="310" height="90" viewBox="0 0 310 90" xml:space="preserve">
<desc>Created with Fabric.js 3.6.3</desc>
<defs>
</defs>
<g transform="matrix(1 0 0 1 153 43.5)"  >
<g style=""   >
		<g transform="matrix(1 0 0 1 365 337.5)"  >
<path style="stroke: rgb(0,0,0); stroke-width: 1; stroke-dasharray: none; stroke-linecap: round; stroke-dashoffset: 0; stroke-linejoin: round; stroke-miterlimit: 10; fill: none; fill-rule: nonzero; opacity: 1;"  transform=" translate(-520, -381)" d="M 519.999 381 L 520.001 381" stroke-linecap="round" />
</g>
		<g transform="matrix(1 0 0 1 1011 101.5)"  >
<circle style="stroke: none; stroke-width: 1; stroke-dasharray: none; stroke-linecap: butt; stroke-dashoffset: 0; stroke-linejoin: miter; stroke-miterlimit: 4; fill: rgb(251,248,248); fill-opacity: 0.55; fill-rule: nonzero; opacity: 1;"  cx="0" cy="0" r="10" />
</g>
		<g transform="matrix(1 0 0 1 1011 101.5)"  >
<circle style="stroke: none; stroke-width: 1; stroke-dasharray: none; stroke-linecap: butt; stroke-dashoffset: 0; stroke-linejoin: miter; stroke-miterlimit: 4; fill: rgb(251,248,248); fill-opacity: 0.1; fill-rule: nonzero; opacity: 1;"  cx="0" cy="0" r="6" />
</g>
		<g transform="matrix(1 0 0 1 1011 101.5)"  >
<circle style="stroke: none; stroke-width: 1; stroke-dasharray: none; stroke-linecap: butt; stroke-dashoffset: 0; stroke-linejoin: miter; stroke-miterlimit: 4; fill: rgb(251,248,248); fill-opacity: 0.41; fill-rule: nonzero; opacity: 1;"  cx="0" cy="0" r="7.5" />
</g>
		<g transform="matrix(1 0 0 1 1011 101.5)"  >
<circle style="stroke: none; stroke-width: 1; stroke-dasharray: none; stroke-linecap: butt; stroke-dashoffset: 0; stroke-linejoin: miter; stroke-miterlimit: 4; fill: rgb(251,248,248); fill-opacity: 0.23; fill-rule: nonzero; opacity: 1;"  cx="0" cy="0" r="5.5" />
</g>
		<g transform="matrix(0.33 0 0 0.32 -84.06 2.5)" id="Capa_1"  >
<path style="stroke: none; stroke-width: 1; stroke-dasharray: none; stroke-linecap: butt; stroke-dashoffset: 0; stroke-linejoin: miter; stroke-miterlimit: 4; fill: rgb(126,41,177); fill-rule: nonzero; opacity: 1;"  transform=" translate(-186.31, -124.46)" d="M 73.84 134.33 c -2.22 7.06 -3.89 13.04 -6.01 18.85 c -1.15 3.14 -0.56 4.55 2.47 6.21 c 22.02 12.08 30.81 37.36 21.29 60.45 c -8.64 20.94 -31.55 32.85 -53.85 28 c -22.55 -4.91 -38.4 -25.14 -37.71 -48.15 c 0.67 -22.56 18.1 -42.33 40.28 -45.57 c 4.82 -0.7 9.71 -0.61 14.54 -0.03 c 1.99 0.24 3.01 -0.18 3.64 -2.28 c 2.14 -7.2 4.5 -14.34 6.98 -22.14 c -4.31 0.22 -8.11 0.27 -11.88 0.65 c -4.1 0.42 -6.66 -1.14 -8.18 -4.99 c -3.73 -9.49 -4.85 -18.8 1.13 -27.88 c 2.62 -3.97 5.84 -6.19 10.94 -5.1 c 3.24 0.69 7.52 1.96 9.72 0.51 c 2.12 -1.4 2.16 -5.96 3.12 -9.12 c 0.24 -0.8 0.54 -1.59 0.81 -2.38 c 3.4 -9.74 5.92 -11.43 16.22 -11.03 c 3.43 0.13 5.17 1.92 5.63 5.22 c 0.42 2.99 0.9 5.97 1.34 8.96 c 0.42 2.82 0.82 5.64 1.06 7.33 c 11.64 -10.75 23.72 -21.91 35.82 -33.09 c -1.9 -2.23 -3.51 -1.53 -4.86 -1.67 c -15.41 -1.6 -26.25 -14.07 -25.92 -29.93 c 0.29 -14.42 12.73 -26.54 27.85 -27.13 c 14.14 -0.56 27.32 10.9 29.15 25.35 c 0.06 0.5 0.04 1.02 0.15 1.5 c 0.56 2.43 -1.83 5.71 0.22 7.06 c 1.92 1.26 5.15 0.59 7.81 0.6 c 12.07 0.04 24.14 -0.02 36.21 0.05 c 2.29 0.01 4.08 -0.36 5.69 -2.33 c 2.67 -3.29 6.28 -5.52 10.08 -7.36 c 43.8 -21.34 87.99 -23.62 132.74 -2.92 c 12.35 5.71 21.38 13.84 22.25 28.41 c 0.36 5.96 -1.38 11.64 -2.85 17.3 c -6.38 24.61 -17.53 47.01 -31.48 68.14 c -2.49 3.77 -5.56 4.18 -9.5 3.69 c -24.93 -3.12 -48.57 14.26 -52.92 38.89 c -1.49 8.45 0.23 16.69 2.08 24.9 c 3.5 15.52 -5.28 27.41 -21.12 27.55 c -34.37 0.3 -68.74 0.26 -103.1 0.02 c -13.42 -0.09 -21.17 -6.82 -25.08 -19.73 c -6.83 -22.53 -16.06 -43.81 -33.7 -60.28 C 88.54 144.91 79.78 142.16 73.84 134.33 z M 302.32 105.18 c -3.98 13.31 -10.94 22.27 -23.71 25.66 c -6.95 1.85 -13.99 3.37 -21 5.02 c -6.77 1.59 -6.83 1.62 -2.51 6.78 c 2.17 2.59 3.58 5.27 0.61 7.88 c -3.07 2.69 -5.73 1.22 -8.19 -1.51 c -20.87 -23.21 -35.65 -49.8 -44.06 -79.87 c -1.93 -6.9 -4.35 -13.92 -2.89 -21.24 c 0.65 -3.26 -0.43 -3.63 -3.19 -3.61 c -11.9 0.1 -23.81 0.15 -35.71 -0.02 c -3.27 -0.05 -5.6 0.89 -7.9 3.28 c -17.58 18.25 -35.29 36.37 -52.95 54.53 c -0.82 0.84 -1.66 1.67 -2.4 2.58 c -1.64 2.04 -1.08 3.43 1.42 3.91 c 4.15 0.8 7.84 -0.08 11.32 -2.71 c 11.24 -8.49 22.61 -16.8 33.93 -25.18 c 5.25 -3.88 6.8 -3.73 10.82 1.22 c 6.02 7.43 12.01 14.89 17.98 22.35 c 4.02 5.03 3.97 5.95 -0.46 10.57 c -8.59 8.97 -17.17 17.94 -25.8 26.87 c -2.67 2.76 -4.4 5.96 -2.3 9.49 c 7.78 13.09 15.83 26.02 23.94 39.28 c 3.26 -3.37 3.41 -6.78 2.06 -10.48 c -2.99 -8.18 -5.68 -16.49 -9.06 -24.51 c -2.13 -5.06 -1.07 -8.24 3.04 -11.69 c 10.66 -8.95 20.94 -18.36 31.45 -27.48 c 1.53 -1.33 3.18 -4.44 4.98 -3.23 c 2.37 1.6 2.08 5 1.57 7.94 c -0.36 2.04 -1.75 3.18 -3.12 4.39 c -8.42 7.45 -16.74 15 -25.33 22.26 c -3.06 2.59 -4.35 4.77 -2.4 8.79 c 2.25 4.65 3.28 9.9 5.54 14.54 c 5.02 10.29 3.98 19.52 -2.9 28.68 c -4.43 5.9 -7.16 6.22 -11.04 -0.08 c -8.52 -13.85 -17.01 -27.72 -25.52 -41.58 c -0.94 -1.53 -1.59 -3.19 -4.02 -3.14 c -7.17 0.15 -14.34 0.05 -21.53 0.05 c -0.36 1.35 0.67 2.16 1.32 3.05 c 10.87 14.77 18 31.34 23.32 48.75 c 3.52 11.51 7.36 14.46 19.49 14.47 c 32.03 0.01 64.05 0.01 96.08 -0.01 c 2 0 4.03 -0.08 6 -0.41 c 6.89 -1.14 10.47 -5.92 9.54 -12.88 c -0.42 -3.15 -1.26 -6.24 -1.93 -9.35 c -8.05 -37.28 22.44 -72.28 60.4 -69.19 c 2.61 0.21 3.94 -0.56 5.25 -2.64 c 13.2 -20.81 23.53 -42.85 29.03 -67.02 c 3.06 -13.44 -0.14 -21.11 -12.43 -27.25 C 305.95 10.9 263.1 13.04 220.67 34.4 c -8.42 4.24 -12.03 12.82 -10.16 22.04 c 0.57 2.79 1.43 5.52 1.93 8.32 c 0.59 3.36 2.16 4.22 5.53 3.38 c 15.92 -3.94 31.89 -7.67 47.85 -11.45 c 24.56 -5.82 49.12 -11.63 73.94 -17.5 c 0.1 1.13 0.27 1.95 0.22 2.75 c -0.08 1.16 -0.24 2.34 -0.53 3.47 c -2.63 10.23 -9.16 17.49 -18.85 20.7 c -10.66 3.54 -21.85 5.52 -33.27 8.28 c 0.99 -3.92 2.45 -6.8 2.43 -10.08 c -0.02 -2.29 -0.29 -3.38 -3.07 -2.71 c -22.29 5.37 -44.61 10.63 -66.93 15.87 c -2.35 0.55 -3.05 1.51 -2 3.85 c 2.26 5.04 4.45 10.12 6.45 15.27 c 1.09 2.81 2.63 3.22 5.42 2.43 c 5.15 -1.46 10.53 -2.12 15.61 -3.75 c 12.69 -4.07 27.29 -2.97 37.57 -13.71 c 0.4 -0.42 1.25 -0.42 1.9 -0.58 c 10.25 -2.47 20.5 -4.93 30.76 -7.38 c 1.87 -0.45 3.13 -0.6 2.85 2.26 c -1.02 10.76 -9.06 21.24 -19.24 24.28 c -4.48 1.34 -9.11 2.2 -13.66 3.32 c -2.52 0.62 -4.35 0.53 -3.68 -2.89 c 0.54 -2.72 -0.51 -3.68 -3.25 -3.02 c -14.97 3.58 -29.95 7.15 -44.95 10.63 c -2.33 0.54 -2.68 1.37 -1.39 3.32 c 2.59 3.91 5.3 7.78 7.52 11.9 c 2.61 4.83 5.8 6.76 11.3 4.51 c 3.21 -1.32 6.83 -1.58 10.23 -2.47 c 7.13 -1.86 12.71 -5.89 16.44 -12.3 c 0.77 -1.32 1.36 -2.46 3.13 -2.84 C 287.61 108.8 294.39 107.09 302.32 105.18 z M 127.12 145.54 c 4.72 1.04 9.14 0.15 10.87 -6.36 c 0.47 -1.76 2.38 -3.18 3.76 -4.63 c 7.16 -7.53 14.26 -15.13 21.62 -22.45 c 2.34 -2.33 2.15 -3.79 0.17 -6.09 c -4.04 -4.7 -7.94 -9.53 -11.65 -14.49 c -1.73 -2.31 -2.97 -2.35 -5.2 -0.65 c -9.87 7.49 -19.89 14.79 -29.83 22.2 c -2.16 1.61 -4.4 3.02 -6.95 3.94 c -12.03 4.35 -21.09 -1.18 -22.51 -13.6 c -0.76 -6.65 -1.84 -13.27 -2.87 -19.89 c -0.18 -1.12 0.54 -2.98 -1.62 -3.06 c -1.79 -0.07 -2.04 1.49 -2.5 2.69 c -1.8 4.72 -3 9.57 -3.34 14.63 c -0.28 4.17 -2.7 5.9 -6.77 5.44 c -3.82 -0.43 -7.64 -0.89 -11.47 -1.3 c -1.3 -0.14 -2.63 -0.62 -3.9 0.19 c -3.34 2.13 -4.32 15.29 -1.31 18.02 c 0.98 0.89 2.22 0.6 3.37 0.54 c 4.35 -0.22 8.69 -0.46 13.04 -0.77 c 2.5 -0.17 4.63 0.34 6.16 2.52 C 88.38 139.84 105.73 146.14 127.12 145.54 z M 84.78 201.81 c 0.24 -13.18 -6.8 -25.96 -17.9 -32.29 c -1.04 -0.6 -2.72 -2.34 -3.39 -1.03 c -1.58 3.08 -2.44 6.54 -3.48 9.87 c -0.8 2.56 1.68 2.97 2.96 4.03 c 13.03 10.7 11.84 30.81 -2.39 39.41 c -8.96 5.41 -19.62 4.88 -27.78 -1.38 c -7.78 -5.97 -11.31 -17 -8.38 -26.16 c 3.21 -10.04 11.82 -16.63 22.44 -17.22 c 1.55 -0.09 3.53 0.67 4.19 -1.67 c 0.96 -3.35 3.58 -7.62 2.39 -9.82 c -1.53 -2.82 -6.35 -1.52 -9.81 -1.09 c -1.99 0.24 -3.99 0.54 -5.92 1.07 c -18.34 5.06 -29.93 23.55 -26.58 42.32 c 3.24 18.08 20.56 31.95 38.13 30.54 C 69.88 236.73 84.42 221.77 84.78 201.81 z M 148.13 28.71 c 0.04 -10.7 -8.23 -19.13 -18.92 -19.31 c -10.8 -0.18 -19.63 8.43 -19.65 19.16 c -0.02 10.61 8.92 19.53 19.5 19.45 C 139.49 47.93 148.1 39.22 148.13 28.71 z M 47.47 186.28 c -9.57 1.72 -14.42 6.73 -14.68 14.3 c -0.25 7.44 4.28 13.47 11.34 15.1 c 7.54 1.74 14.15 -1.46 17.39 -8.42 c 3.02 -6.5 1.2 -12.96 -5.12 -17.64 c -1.31 4.04 -2.66 7.99 -3.88 11.99 c -1 3.29 -3.07 4.93 -6.39 3.77 c -3.16 -1.11 -3.45 -3.69 -2.48 -6.63 C 44.92 194.82 46.07 190.86 47.47 186.28 z" stroke-linecap="round" />
</g>
		<g transform="matrix(0.33 0 0 0.32 -34.47 26.01)" id="Capa_1"  >
<path style="stroke: none; stroke-width: 1; stroke-dasharray: none; stroke-linecap: butt; stroke-dashoffset: 0; stroke-linejoin: miter; stroke-miterlimit: 4; fill: rgb(126,41,177); fill-rule: nonzero; opacity: 1;"  transform=" translate(-336.59, -197.94)" d="M 387.44 198.18 c -0.03 28.28 -22.49 50.68 -50.81 50.66 c -28.11 -0.02 -50.86 -22.7 -50.89 -50.73 c -0.03 -28.16 23.24 -51.35 51.21 -51.06 C 365.17 147.35 387.47 169.94 387.44 198.18 z M 376.31 198.29 c 0.71 -18.28 -13.92 -38.35 -37.28 -39.92 c -9.11 -0.61 -9.6 -0.32 -7.15 8.18 c 1.08 3.74 2.37 5.63 6.95 5.79 c 12.33 0.44 22.4 10.74 23.78 23.26 c 1.28 11.64 -6.65 23.52 -18.08 27.1 c -12.32 3.86 -24.8 -1.41 -31.02 -13.11 c -5.63 -10.59 -2.82 -24.14 6.96 -31.6 c 2.85 -2.18 4.06 -4.06 2.35 -7.39 c -0.6 -1.17 -0.97 -2.52 -1.21 -3.82 c -0.83 -4.59 -2.78 -4.54 -6.37 -2.25 c -15.83 10.13 -22.43 30.28 -15.5 48.14 c 6.73 17.34 25.62 27.94 43.76 24.55 C 362.67 233.65 376.24 217.54 376.31 198.29 z M 327.38 185.34 c -6.82 5.26 -8.66 13.15 -5.04 19.94 c 3.96 7.43 12.23 10.68 20.07 7.88 c 6.78 -2.42 11.62 -10.75 10.29 -17.72 c -1.5 -7.86 -7.73 -13.09 -15.59 -12.85 c 1.33 4.33 2.59 8.62 3.98 12.87 c 1.11 3.39 0.51 6.17 -3.12 7.2 c -3.31 0.94 -5.33 -0.94 -6.33 -4.08 C 330.28 194.27 328.88 189.99 327.38 185.34 z" stroke-linecap="round" />
</g>
		<g transform="matrix(0.33 0 0 0.32 130.66 5.23)" id="Capa_1"  >
<path style="stroke: none; stroke-width: 1; stroke-dasharray: none; stroke-linecap: butt; stroke-dashoffset: 0; stroke-linejoin: miter; stroke-miterlimit: 4; fill: rgb(126,41,177); fill-rule: nonzero; opacity: 1;"  transform=" translate(-836.98, -132.98)" d="M 791.83 130.86 c 6.87 -7.26 13.54 -13.01 18.58 -19.95 c 5.65 -7.77 12.85 -7.73 21.71 -6.76 c -5.63 6.07 -10.89 11.78 -16.19 17.45 c -7.57 8.1 -7.6 8.1 -0.69 16.87 c 5.39 6.84 10.82 13.65 16.58 20.91 c 6.39 -14.35 12.57 -28.25 18.76 -42.14 c 1.29 -2.91 2.85 -5.73 3.81 -8.75 c 1.21 -3.83 3.51 -4.54 7.36 -4.89 c 6.44 -0.59 9.3 1.93 11.68 7.7 c 6.26 15.18 13.24 30.05 19.92 45.05 c 0.74 1.65 1.38 3.35 2.36 5.76 c -4.28 0 -8.04 -0.11 -11.8 0.04 c -2.59 0.1 -3.18 -1.79 -3.51 -3.48 c -1.56 -7.99 -6.43 -10.31 -14.06 -9.18 c -3.94 0.58 -8.06 0.39 -12.05 0.02 c -3.72 -0.35 -5.61 1.15 -6.54 4.53 c -0.35 1.28 -1.16 2.45 -1.46 3.74 c -0.84 3.59 -2.99 4.71 -6.58 4.41 c -3.83 -0.31 -7.77 -0.52 -11.55 0.03 c -7.29 1.04 -12.36 -1.42 -16.3 -7.68 c -2.84 -4.51 -6.81 -8.3 -10.01 -12.6 c -1.83 -2.46 -2.78 -1.84 -4.97 -0.2 c -5.43 4.07 -5.5 9.57 -5.01 15.32 c 0.31 3.71 -0.53 5.34 -4.81 5.19 c -8.72 -0.31 -8.73 -0.04 -8.73 -8.83 c 0 -14.94 0.1 -29.89 -0.07 -44.83 c -0.04 -3.55 0.6 -4.99 4.61 -4.87 c 8.95 0.27 8.96 0.03 8.96 8.98 C 791.83 118.29 791.83 123.92 791.83 130.86 z M 863.1 117.14 c -3.26 7.91 -6.04 14.67 -9.08 22.07 c 5.44 0 10.24 -0.07 15.04 0.03 c 2.47 0.05 2.9 -0.95 2.03 -3.03 C 868.57 130.24 866.08 124.26 863.1 117.14 z" stroke-linecap="round" />
</g>
		<g transform="matrix(0.33 0 0 0.32 34.46 5.22)" id="Capa_1"  >
<path style="stroke: none; stroke-width: 1; stroke-dasharray: none; stroke-linecap: butt; stroke-dashoffset: 0; stroke-linejoin: miter; stroke-miterlimit: 4; fill: rgb(126,41,177); fill-rule: nonzero; opacity: 1;"  transform=" translate(-545.45, -132.95)" d="M 532.16 128.53 c 0 9.53 -0.17 19.06 0.08 28.58 c 0.1 3.85 -0.81 5.25 -4.94 5.11 c -8.58 -0.29 -8.59 -0.04 -8.59 -8.4 c 0 -15.28 0.08 -30.56 -0.06 -45.84 c -0.03 -3.2 0.8 -4.14 4.16 -4.33 c 4.98 -0.28 8.3 1.16 11.41 5.23 c 7.51 9.83 15.58 19.24 24.44 30.06 c 0 -7.79 0 -14.19 0 -20.6 c 0 -2.52 0 -5.04 0 -7.56 c 0 -6.98 0 -6.98 6.86 -6.98 c 6.63 0 6.64 0 6.64 6.71 c 0 15.61 -0.11 31.23 0.08 46.84 c 0.04 3.64 -0.79 4.84 -4.68 4.92 c -4.62 0.1 -7.67 -1.2 -10.56 -4.95 c -7.67 -9.93 -15.83 -19.48 -23.79 -29.18 C 532.86 128.28 532.51 128.4 532.16 128.53 z" stroke-linecap="round" />
</g>
		<g transform="matrix(0.33 0 0 0.32 -4.41 5.26)" id="Capa_1"  >
<path style="stroke: none; stroke-width: 1; stroke-dasharray: none; stroke-linecap: butt; stroke-dashoffset: 0; stroke-linejoin: miter; stroke-miterlimit: 4; fill: rgb(126,41,177); fill-rule: nonzero; opacity: 1;"  transform=" translate(-427.66, -133.09)" d="M 453.25 161.61 c -1.1 0.32 -1.25 0.37 -1.41 0.4 c -8.83 1.72 -15.41 -0.75 -19.44 -9.43 c -1.2 -2.58 -2.38 -6.08 -6.16 -6.65 c -9.86 -1.47 -10.59 -0.78 -10.71 9.13 c -0.03 2.25 1.21 5.92 -0.82 6.5 c -3.55 1.02 -7.59 0.5 -11.41 0.31 c -1.53 -0.08 -1.19 -1.81 -1.2 -2.9 c -0.03 -17.44 -0.02 -34.89 -0.03 -52.33 c 0 -1.67 0.18 -2.95 2.38 -2.87 c 10.36 0.39 20.81 -1.02 31.08 1.02 c 13.78 2.74 20.77 16.22 15.17 28.78 c -1.4 3.14 -3.25 6.08 -6.42 7.46 c -3.98 1.73 -3.05 3.56 -1.04 6.23 C 446.64 151.79 449.73 156.52 453.25 161.61 z M 415.59 124.93 c 0 2.52 0.03 5.03 -0.01 7.55 c -0.02 1.5 0.2 2.65 2.11 2.57 c 4.67 -0.18 9.4 0.54 14 -0.75 c 4.79 -1.34 7.19 -4.61 7.12 -9.6 c -0.09 -6.43 -4.16 -9.63 -12.52 -9.84 C 415.58 114.59 415.58 114.59 415.59 124.93 z" stroke-linecap="round" />
</g>
		<g transform="matrix(0.33 0 0 0.32 14.7 5.23)" id="Capa_1"  >
<path style="stroke: none; stroke-width: 1; stroke-dasharray: none; stroke-linecap: butt; stroke-dashoffset: 0; stroke-linejoin: miter; stroke-miterlimit: 4; fill: rgb(126,41,177); fill-rule: nonzero; opacity: 1;"  transform=" translate(-485.57, -132.98)" d="M 463.01 132.69 c 0 -8.39 0.1 -16.79 -0.05 -25.18 c -0.05 -2.78 0.69 -3.8 3.63 -3.76 c 12.4 0.15 24.81 0.1 37.21 0.03 c 2.21 -0.01 3.23 0.4 3.35 2.99 c 0.39 7.99 0.53 7.99 -7.45 7.99 c -6.37 0 -12.74 0.13 -19.11 -0.06 c -2.96 -0.09 -4.17 0.65 -4.08 3.88 c 0.31 10.67 -1.05 8.34 8.38 8.57 c 5.03 0.12 10.07 0.23 15.08 -0.04 c 4.76 -0.26 3.4 3.07 3.42 5.42 c 0.01 2.37 1.29 5.61 -3.44 5.41 c -6.36 -0.28 -12.74 0.07 -19.11 -0.13 c -3.16 -0.1 -4.36 0.73 -4.36 4.15 c 0.01 9.22 -0.16 9.22 9.23 9.22 c 6.2 0 12.41 0.1 18.61 -0.05 c 2.6 -0.06 3.87 0.36 3.89 3.47 c 0.05 7.52 0.24 7.51 -7.41 7.51 c -11.06 0 -22.13 -0.18 -33.19 0.1 c -3.89 0.1 -4.81 -1.17 -4.69 -4.85 C 463.19 149.14 463 140.91 463.01 132.69 z" stroke-linecap="round" />
</g>
		<g transform="matrix(0.33 0 0 0.32 71.86 5.22)" id="Capa_1"  >
<path style="stroke: none; stroke-width: 1; stroke-dasharray: none; stroke-linecap: butt; stroke-dashoffset: 0; stroke-linejoin: miter; stroke-miterlimit: 4; fill: rgb(126,41,177); fill-rule: nonzero; opacity: 1;"  transform=" translate(-658.79, -132.96)" d="M 626.66 161.87 c 4.74 -10.69 9.25 -20.91 13.78 -31.11 c 3.46 -7.8 7.08 -15.53 10.37 -23.4 c 1.14 -2.73 2.59 -3.95 5.56 -3.6 c 1.98 0.24 4.03 0.22 6.02 0 c 2.6 -0.28 3.8 0.87 4.82 3.18 c 7.55 17.15 15.21 34.25 22.94 51.32 c 1.35 2.98 1.13 4.36 -2.49 3.86 c -0.49 -0.07 -1 -0.01 -1.51 -0.01 c -8.52 0.02 -8.8 0.12 -11.64 -7.8 c -1.4 -3.91 -3.43 -5.04 -7.36 -4.82 c -5.84 0.33 -11.72 0.22 -17.57 0.03 c -2.92 -0.1 -4.47 0.8 -5.63 3.62 C 640.04 162.69 639.92 162.64 626.66 161.87 z M 659 117.08 c -3.3 8.06 -6.08 14.85 -8.95 21.86 c 6.32 0 11.89 0 17.98 0 C 665.08 131.79 662.31 125.09 659 117.08 z" stroke-linecap="round" />
</g>
		<g transform="matrix(0.33 0 0 0.32 53.97 5.22)" id="Capa_1"  >
<path style="stroke: none; stroke-width: 1; stroke-dasharray: none; stroke-linecap: butt; stroke-dashoffset: 0; stroke-linejoin: miter; stroke-miterlimit: 4; fill: rgb(126,41,177); fill-rule: nonzero; opacity: 1;"  transform=" translate(-604.59, -132.96)" d="M 605.02 103.81 c 7.03 0 14.07 0.17 21.1 -0.08 c 3.21 -0.11 3.96 0.98 3.85 3.99 c -0.31 8.83 0.88 6.92 -7.18 7.13 c -2.51 0.07 -5.04 0.2 -7.53 -0.04 c -3.16 -0.3 -3.95 0.99 -3.92 3.99 c 0.14 12.58 -0.1 25.16 0.15 37.73 c 0.08 4.16 -0.59 5.97 -5.38 5.71 c -8.31 -0.44 -8.33 -0.1 -8.33 -8.66 c 0 -11.24 -0.22 -22.48 0.11 -33.7 c 0.13 -4.36 -1.27 -5.55 -5.33 -5.09 c -2.98 0.33 -6.07 -0.28 -9.02 0.14 c -5.1 0.74 -4.33 -2.58 -4.27 -5.55 c 0.06 -2.84 -1.03 -6.04 4.16 -5.69 C 590.59 104.16 597.82 103.81 605.02 103.81 z" stroke-linecap="round" />
</g>
		<g transform="matrix(0.33 0 0 0.32 92.5 5.22)" id="Capa_1"  >
<path style="stroke: none; stroke-width: 1; stroke-dasharray: none; stroke-linecap: butt; stroke-dashoffset: 0; stroke-linejoin: miter; stroke-miterlimit: 4; fill: rgb(126,41,177); fill-rule: nonzero; opacity: 1;"  transform=" translate(-721.33, -132.97)" d="M 700.06 132.52 c 0 -8.06 0.14 -16.12 -0.07 -24.17 c -0.09 -3.31 0.56 -4.71 4.3 -4.64 c 9.13 0.15 9.13 -0.06 9.13 9.24 c 0 11.42 0.1 22.83 -0.07 34.24 c -0.05 3.07 0.77 4.07 3.92 3.97 c 7.2 -0.23 14.43 0.18 21.62 -0.16 c 5.08 -0.24 3.55 3.18 3.63 5.67 c 0.08 2.65 1.1 5.68 -3.82 5.55 c -11.56 -0.32 -23.13 -0.2 -34.7 -0.04 c -3.05 0.04 -4.08 -0.86 -4.02 -3.97 C 700.18 149.65 700.06 141.08 700.06 132.52 z" stroke-linecap="round" />
</g>
		<g transform="matrix(0.33 0 0 0.32 104.56 5.21)" id="Capa_1"  >
<path style="stroke: none; stroke-width: 1; stroke-dasharray: none; stroke-linecap: butt; stroke-dashoffset: 0; stroke-linejoin: miter; stroke-miterlimit: 4; fill: rgb(126,41,177); fill-rule: nonzero; opacity: 1;"  transform=" translate(-757.89, -132.94)" d="M 764.69 133.32 c 0 8.38 -0.1 16.76 0.06 25.14 c 0.05 2.85 -0.84 3.79 -3.7 3.71 c -12.19 -0.34 -9.79 1.65 -9.91 -9.55 c -0.16 -14.75 0.04 -29.5 -0.1 -44.24 c -0.03 -3.27 0.49 -4.74 4.28 -4.68 c 9.37 0.15 9.38 -0.06 9.38 9.51 C 764.69 119.92 764.69 126.62 764.69 133.32 z" stroke-linecap="round" />
</g>
		<g transform="matrix(0.33 0 0 0.32 18.55 25.05)" id="Capa_1"  >
<path style="stroke: none; stroke-width: 1; stroke-dasharray: none; stroke-linecap: butt; stroke-dashoffset: 0; stroke-linejoin: miter; stroke-miterlimit: 4; fill: rgb(126,41,177); fill-rule: nonzero; opacity: 1;"  transform=" translate(-497.25, -194.93)" d="M 491.09 190.87 c 0 5.1 0.05 8.76 -0.02 12.41 c -0.03 1.5 0.76 3.53 -2.07 3.59 c -2.6 0.05 -2.44 -1.63 -2.44 -3.36 c 0.01 -5.7 -0.02 -11.39 0.02 -17.09 c 0.01 -1.24 -0.5 -2.86 1.37 -3.32 c 1.67 -0.41 2.83 0.42 3.86 1.7 c 3.43 4.28 6.93 8.51 11.5 12.57 c 0 -3.72 -0.01 -7.45 0.01 -11.17 c 0.01 -1.46 -0.37 -3.12 2.01 -3.21 c 2.46 -0.09 2.6 1.4 2.59 3.26 c -0.04 5.69 0.01 11.39 -0.04 17.09 c -0.01 1.24 0.59 2.89 -1.24 3.39 c -1.59 0.43 -2.84 -0.19 -3.91 -1.54 C 499.21 200.76 495.59 196.4 491.09 190.87 z" stroke-linecap="round" />
</g>
		<g transform="matrix(0.33 0 0 0.32 42.86 24.99)" id="Capa_1"  >
<path style="stroke: none; stroke-width: 1; stroke-dasharray: none; stroke-linecap: butt; stroke-dashoffset: 0; stroke-linejoin: miter; stroke-miterlimit: 4; fill: rgb(126,41,177); fill-rule: nonzero; opacity: 1;"  transform=" translate(-570.92, -194.73)" d="M 561.95 194.49 c 0 -11.51 0 -11.64 11.4 -11.38 c 1.99 0.05 6.01 -2.09 5.91 1.96 c -0.08 3.28 -3.78 1.17 -5.8 1.62 c -1.44 0.32 -3 0.13 -4.51 0.07 c -2.6 -0.1 -2.31 1.71 -2.41 3.4 c -0.11 1.92 0.67 2.75 2.62 2.68 c 2.18 -0.08 4.36 0.02 6.53 -0.01 c 1.4 -0.02 2.21 0.48 2.24 2.01 c 0.06 2.92 -3.24 0.86 -4.3 2.31 c -5.13 -1.1 -7.2 -1.19 -7.17 2.67 c 0.03 2.78 1.17 3.45 3.63 3.31 c 2.51 -0.14 5.03 0 7.54 -0.03 c 1.37 -0.02 2.26 0.37 2.26 1.95 c 0 1.68 -1.06 1.85 -2.35 1.82 c -1 -0.02 -2.01 0 -3.02 0 C 561.95 206.88 561.95 206.88 561.95 194.49 z" stroke-linecap="round" />
</g>
		<g transform="matrix(0.33 0 0 0.32 10.2 25.04)" id="Capa_1"  >
<path style="stroke: none; stroke-width: 1; stroke-dasharray: none; stroke-linecap: butt; stroke-dashoffset: 0; stroke-linejoin: miter; stroke-miterlimit: 4; fill: rgb(126,41,177); fill-rule: nonzero; opacity: 1;"  transform=" translate(-471.95, -194.9)" d="M 462.97 194.97 c 0 -12 0 -12 11.86 -11.99 c 1.17 0 2.35 0.02 3.52 0.01 c 1.15 -0.01 1.92 0.41 2 1.69 c 0.1 1.54 -0.69 2.08 -2.12 2.06 c -2.51 -0.03 -5.03 0.09 -7.54 -0.02 c -2.42 -0.1 -3.2 1.02 -3.2 3.32 c 0 2.31 1.18 2.83 3.15 2.78 c 2.18 -0.05 4.35 0 6.53 0.05 c 1.2 0.03 1.76 0.68 1.79 1.91 c 0.02 1.34 -0.74 1.73 -1.88 1.74 c -2.01 0.02 -4.03 0.13 -6.03 -0.01 c -2.48 -0.18 -3.64 0.55 -3.6 3.32 c 0.04 2.82 1.41 3.37 3.77 3.28 c 2.51 -0.1 5.02 -0.01 7.54 0 c 1.35 0 2.26 0.44 2.16 2.04 c -0.08 1.33 -0.92 1.67 -2.01 1.67 c -4.69 0.01 -9.38 0 -14.07 0.01 c -2.05 0 -1.86 -1.46 -1.86 -2.8 C 462.97 201.01 462.98 197.99 462.97 194.97 z" stroke-linecap="round" />
</g>
		<g transform="matrix(0.33 0 0 0.32 34.79 25.03)" id="Capa_1"  >
<path style="stroke: none; stroke-width: 1; stroke-dasharray: none; stroke-linecap: butt; stroke-dashoffset: 0; stroke-linejoin: miter; stroke-miterlimit: 4; fill: rgb(126,41,177); fill-rule: nonzero; opacity: 1;"  transform=" translate(-546.46, -194.88)" d="M 555.9 206.14 c -3.63 1.65 -4.96 -0.56 -6.41 -2.71 c -1.09 -1.62 -1.99 -3.38 -4.49 -3.53 c -3.36 -0.21 -4.6 1.12 -4.24 4.36 c 0.17 1.55 -0.37 2.52 -2.22 2.52 c -1.88 0.01 -2.18 -0.98 -2.17 -2.53 c 0.03 -6.21 0.06 -12.42 -0.02 -18.63 c -0.03 -1.95 0.7 -2.74 2.63 -2.64 c 3.51 0.19 7.09 -0.06 10.53 0.52 c 6.13 1.04 9.38 8.43 5.14 12.6 c -3.49 3.44 -2.06 5.36 0.08 8.01 C 555.12 204.61 555.37 205.23 555.9 206.14 z M 540.73 191.54 c -0.41 2.98 -0.22 5.37 3.91 4.85 c 3.18 -0.4 6.79 -0.2 6.97 -4.63 c 0.19 -4.83 -3.61 -4.69 -6.98 -5.12 C 540.48 186.11 540.34 188.56 540.73 191.54 z" stroke-linecap="round" />
</g>
		<g transform="matrix(0.33 0 0 0.32 -1.89 25.11)" id="Capa_1"  >
<path style="stroke: none; stroke-width: 1; stroke-dasharray: none; stroke-linecap: butt; stroke-dashoffset: 0; stroke-linejoin: miter; stroke-miterlimit: 4; fill: rgb(126,41,177); fill-rule: nonzero; opacity: 1;"  transform=" translate(-435.31, -195.11)" d="M 424.81 191.48 c 0 -2.01 0.06 -4.02 -0.01 -6.02 c -0.06 -1.66 0.53 -2.48 2.28 -2.47 c 1.68 0.01 2.4 0.69 2.37 2.41 c -0.07 3.51 0.01 7.03 -0.02 10.54 c -0.04 3.99 1.2 7 5.75 7.24 c 4.02 0.21 5.99 -2.18 6.13 -7.38 c 0.09 -3.34 0.07 -6.69 0 -10.04 c -0.03 -1.83 0.53 -2.83 2.56 -2.76 c 2 0.07 1.94 1.37 1.94 2.77 c -0.01 3.68 0.08 7.37 -0.02 11.04 c -0.18 6.48 -4.1 10.36 -10.37 10.41 c -6.25 0.06 -10.3 -3.83 -10.6 -10.22 C 424.74 195.16 424.81 193.32 424.81 191.48 z" stroke-linecap="round" />
</g>
		<g transform="matrix(0.33 0 0 0.32 50.78 25.03)" id="Capa_1"  >
<path style="stroke: none; stroke-width: 1; stroke-dasharray: none; stroke-linecap: butt; stroke-dashoffset: 0; stroke-linejoin: miter; stroke-miterlimit: 4; fill: rgb(126,41,177); fill-rule: nonzero; opacity: 1;"  transform=" translate(-594.9, -194.87)" d="M 605.63 198.87 c 1.37 5.58 -1.43 7.09 -5.35 7.85 c -6.26 1.2 -11.82 -0.74 -14.6 -5.24 c -2.75 -4.46 -2.45 -10.19 0.74 -14.14 c 3.3 -4.09 9.59 -5.81 15.11 -3.85 c 1.7 0.6 4.66 1.18 3.9 3.59 c -0.88 2.8 -3.21 0.95 -5.02 0.35 c -3.76 -1.24 -7.41 -1 -10.11 2.15 c -2.39 2.79 -2.5 6.2 -0.81 9.42 c 1.88 3.6 5.19 4.36 8.97 3.99 c 2.33 -0.23 3.55 -1.03 3.47 -3.73 c -0.05 -1.58 -1.53 -4.62 1.93 -4.55 C 607.66 194.77 605.14 198.07 605.63 198.87 z" stroke-linecap="round" />
</g>
		<g transform="matrix(0.33 0 0 0.32 59.78 25.06)" id="Capa_1"  >
<path style="stroke: none; stroke-width: 1; stroke-dasharray: none; stroke-linecap: butt; stroke-dashoffset: 0; stroke-linejoin: miter; stroke-miterlimit: 4; fill: rgb(126,41,177); fill-rule: nonzero; opacity: 1;"  transform=" translate(-622.19, -194.95)" d="M 632.43 206.89 c -1.38 0.22 -2.47 -0.59 -2.95 -2.28 c -1.47 -5.18 -5.72 -2.65 -8.82 -3.13 c -2.54 -0.39 -5.08 -0.35 -5.8 3.08 c -0.43 2.04 -2 2.81 -3.81 2.18 c -2.62 -0.91 -0.5 -2.55 -0.07 -3.56 c 2.42 -5.71 5.07 -11.31 7.59 -16.97 c 0.76 -1.72 1.28 -3.36 3.77 -3.27 c 2.21 0.07 2.75 1.55 3.44 3.06 c 2.69 5.95 5.41 11.89 8.03 17.88 C 634.27 204.95 635.95 206.78 632.43 206.89 z M 617.81 197.82 c 3.29 -0.4 6.99 1.16 7.67 -0.94 c 0.84 -2.63 -1.69 -5.54 -3.37 -9.25 C 620.51 191.41 619.32 194.23 617.81 197.82 z" stroke-linecap="round" />
</g>
		<g transform="matrix(0.33 0 0 0.32 -9.8 25.03)" id="Capa_1"  >
<path style="stroke: none; stroke-width: 1; stroke-dasharray: none; stroke-linecap: butt; stroke-dashoffset: 0; stroke-linejoin: miter; stroke-miterlimit: 4; fill: rgb(126,41,177); fill-rule: nonzero; opacity: 1;"  transform=" translate(-411.33, -194.88)" d="M 411.32 182.99 c 2.51 0 5.02 0.01 7.53 0 c 1.45 0 2.73 0.16 2.6 2.13 c -0.12 1.7 -1.39 1.84 -2.52 1.64 c -8.29 -1.52 -4.72 6.86 -4.7 14.03 c -2.35 0.86 1.99 5.92 -2.82 5.99 c -5.38 0.08 -0.51 -5.69 -3.33 -6.43 c 0.42 -7.51 3.39 -14.74 -3.88 -13.6 c -1.22 0.19 -2.87 0.39 -3 -1.65 c -0.14 -2.37 1.61 -2.09 3.1 -2.11 C 406.64 182.97 408.98 182.99 411.32 182.99 z" stroke-linecap="round" />
</g>
		<g transform="matrix(0.33 0 0 0.32 26.78 25.04)" id="Capa_1"  >
<path style="stroke: none; stroke-width: 1; stroke-dasharray: none; stroke-linecap: butt; stroke-dashoffset: 0; stroke-linejoin: miter; stroke-miterlimit: 4; fill: rgb(126,41,177); fill-rule: nonzero; opacity: 1;"  transform=" translate(-522.19, -194.91)" d="M 522.52 183.14 c 2.51 0 5.03 -0.02 7.54 0.01 c 1.04 0.01 2.02 0.22 2.12 1.56 c 0.13 1.67 -1.02 2.16 -2.24 1.91 c -6.17 -1.25 -5.8 2.73 -5.65 6.77 c 0.13 3.52 0.04 7.05 0.02 10.58 c -0.01 1.33 0.18 2.72 -1.89 2.8 c -2 0.08 -2.66 -0.81 -2.65 -2.68 c 0.05 -4.36 -0.15 -8.74 0.06 -13.09 c 0.16 -3.19 -0.76 -4.72 -4.19 -4.38 c -1.28 0.13 -3.42 0.76 -3.44 -1.63 c -0.02 -2.79 2.35 -1.72 3.78 -1.83 c 2.17 -0.17 4.36 -0.04 6.54 -0.04 C 522.52 183.12 522.52 183.13 522.52 183.14 z" stroke-linecap="round" />
</g>
		<g transform="matrix(0.33 0 0 0.32 -1.21 19.89)" id="Capa_1"  >
<path style="stroke: none; stroke-width: 1; stroke-dasharray: none; stroke-linecap: butt; stroke-dashoffset: 0; stroke-linejoin: miter; stroke-miterlimit: 4; fill: rgb(126,41,177); fill-rule: nonzero; opacity: 1;"  transform=" translate(-437.36, -178.79)" d="M 433.07 181.07 c 2.2 -3.17 4.03 -5.62 8.58 -4.19 C 438.75 178.71 437.16 181.52 433.07 181.07 z" stroke-linecap="round" />
</g>
		<g transform="matrix(0.33 0 0 0.32 -72.24 21.91)" id="Capa_1"  >
<path style="stroke: none; stroke-width: 1; stroke-dasharray: none; stroke-linecap: butt; stroke-dashoffset: 0; stroke-linejoin: miter; stroke-miterlimit: 4; fill: rgb(126,41,177); fill-rule: nonzero; opacity: 1;"  transform=" translate(-222.13, -185.11)" d="M 222.2 180.14 c 6.53 0 13.06 -0.03 19.59 0.01 c 3.41 0.02 6.69 0.64 6.62 5 c -0.07 4.3 -3.38 4.91 -6.76 4.92 c -13.06 0.03 -26.13 0.04 -39.19 -0.01 c -3.4 -0.01 -6.66 -0.69 -6.61 -5.04 c 0.05 -4.38 3.37 -4.85 6.75 -4.87 C 209.13 180.11 215.67 180.14 222.2 180.14 z" stroke-linecap="round" />
</g>
</g>
</g>
</svg>